<?xml version="1.0" encoding="utf-8"?>
<svg xmlns="http://www.w3.org/2000/svg" xmlns:xlink="http://www.w3.org/1999/xlink">
    <symbol viewBox="0 0 126 72" id="vk">
      <path d="M124.523,64.503c-0.152-0.328-0.293-0.597-0.426-0.816
        c-2.172-3.91-6.324-8.711-12.449-14.401l-0.129-0.134l-0.066-0.063l-0.066-0.066h-0.063c-2.781-2.651-4.543-4.434-5.281-5.344
        c-1.348-1.738-1.652-3.5-0.914-5.281c0.523-1.348,2.477-4.19,5.867-8.538c1.781-2.302,3.195-4.149,4.234-5.539
        c7.52-9.996,10.777-16.383,9.777-19.164l-0.387-0.649c-0.262-0.39-0.934-0.75-2.02-1.074c-1.086-0.327-2.477-0.383-4.172-0.163
        L99.656,3.398c-0.301-0.105-0.738-0.099-1.301,0.034c-0.566,0.13-0.852,0.195-0.852,0.195L97.18,3.793l-0.258,0.195
        c-0.219,0.129-0.457,0.354-0.719,0.683c-0.258,0.325-0.477,0.707-0.648,1.142c-2.047,5.258-4.367,10.145-6.977,14.663
        c-1.609,2.695-3.086,5.031-4.434,7.009c-1.348,1.976-2.477,3.434-3.387,4.366c-0.914,0.935-1.738,1.685-2.477,2.246
        c-0.742,0.567-1.305,0.806-1.695,0.72c-0.391-0.091-0.762-0.177-1.109-0.263c-0.609-0.39-1.098-0.922-1.465-1.597
        c-0.371-0.672-0.621-1.52-0.75-2.543c-0.129-1.021-0.207-1.899-0.23-2.637c-0.02-0.738-0.008-1.785,0.035-3.129
        c0.043-1.349,0.066-2.263,0.066-2.738c0-1.653,0.031-3.446,0.094-5.379c0.066-1.935,0.121-3.465,0.164-4.594
        c0.043-1.13,0.066-2.324,0.066-3.587c0-1.258-0.078-2.245-0.23-2.965c-0.148-0.715-0.379-1.41-0.684-2.086
        c-0.305-0.672-0.75-1.194-1.336-1.562c-0.586-0.371-1.313-0.664-2.18-0.883c-2.305-0.521-5.238-0.802-8.8-0.849
        c-8.082-0.086-13.274,0.438-15.579,1.567c-0.914,0.476-1.738,1.129-2.476,1.953c-0.781,0.957-0.891,1.479-0.328,1.565
        c2.609,0.392,4.453,1.325,5.543,2.802l0.39,0.784c0.305,0.563,0.61,1.563,0.911,2.996c0.304,1.435,0.5,3.021,0.585,4.758
        c0.219,3.173,0.219,5.888,0,8.149c-0.214,2.257-0.421,4.019-0.617,5.277c-0.195,1.262-0.488,2.28-0.879,3.065
        c-0.39,0.782-0.652,1.258-0.785,1.435c-0.129,0.172-0.238,0.28-0.324,0.323c-0.566,0.22-1.152,0.328-1.762,0.328
        c-0.605,0-1.344-0.304-2.215-0.914c-0.867-0.608-1.769-1.444-2.703-2.512c-0.933-1.062-1.988-2.55-3.164-4.464
        c-1.172-1.911-2.386-4.168-3.648-6.778l-1.043-1.89c-0.653-1.215-1.543-2.985-2.672-5.313c-1.129-2.323-2.129-4.569-2.996-6.745
        c-0.348-0.91-0.871-1.605-1.567-2.087l-0.324-0.194c-0.219-0.172-0.566-0.356-1.043-0.556c-0.48-0.194-0.976-0.336-1.5-0.422
        L4.172,3.265c-1.824,0-3.063,0.414-3.715,1.238L0.195,4.895C0.066,5.113,0,5.46,0,5.938c0,0.48,0.129,1.065,0.391,1.762
        C3,13.824,5.832,19.734,8.898,25.425c3.063,5.696,5.723,10.278,7.981,13.754c2.262,3.478,4.562,6.758,6.91,9.84
        c2.348,3.086,3.902,5.063,4.66,5.935c0.762,0.871,1.36,1.519,1.793,1.953l1.629,1.565c1.043,1.043,2.574,2.293,4.598,3.746
        c2.02,1.457,4.258,2.891,6.711,4.305c2.457,1.41,5.312,2.563,8.574,3.453c3.258,0.892,6.43,1.25,9.516,1.074h7.496
        c1.52-0.129,2.672-0.609,3.453-1.433l0.258-0.324c0.176-0.262,0.34-0.665,0.488-1.208c0.152-0.542,0.23-1.14,0.23-1.792
        c-0.043-1.868,0.098-3.551,0.422-5.051c0.324-1.496,0.695-2.625,1.109-3.388c0.414-0.762,0.879-1.401,1.402-1.922
        c0.52-0.522,0.891-0.836,1.109-0.944c0.215-0.11,0.387-0.185,0.52-0.231c1.043-0.347,2.27-0.007,3.684,1.012
        c1.41,1.024,2.734,2.281,3.977,3.781c1.238,1.5,2.727,3.184,4.461,5.051c1.742,1.867,3.262,3.258,4.563,4.172l1.305,0.781
        c0.871,0.524,2,1,3.391,1.435c1.391,0.437,2.605,0.547,3.648,0.327l16.688-0.262c1.648,0,2.934-0.272,3.844-0.815
        c0.914-0.544,1.453-1.142,1.629-1.789c0.176-0.653,0.184-1.392,0.035-2.22C124.824,65.406,124.672,64.828,124.523,64.503
        L124.523,64.503z M124.523,64.503"/>
    </symbol>
    <symbol  viewBox="0 0 36.711 36.711" id="fb">
        <path d="M36.711,34.686c0,1.119-0.907,2.025-2.026,2.025H25.33V22.495h4.771l0.715-5.541H25.33v-3.537
        c0-1.604,0.445-2.696,2.746-2.696l2.934-0.001V5.764c-0.508-0.067-2.249-0.219-4.275-0.219c-4.23,0-7.127,2.582-7.127,7.323v4.086
        h-4.784v5.541h4.784v14.216H2.026C0.907,36.711,0,35.805,0,34.686V2.026C0,0.907,0.907,0,2.026,0h32.659
        c1.119,0,2.026,0.907,2.026,2.026V34.686z" />
    </symbol>
    <symbol  viewBox="0 0 36.663 36.664" id="inst">
        <path d="M32.305,0H4.357C1.95,0,0,1.946,0,4.349v27.967c0,2.4,1.95,4.348,4.357,4.348h27.947
        c2.407,0,4.358-1.947,4.358-4.348V4.349C36.663,1.946,34.712,0,32.305,0 M26.352,5.729c0-0.632,0.513-1.146,1.146-1.146h3.438
        c0.632,0,1.145,0.514,1.145,1.146v3.438c0,0.633-0.513,1.146-1.145,1.146h-3.438c-0.633,0-1.146-0.513-1.146-1.146V5.729z
        M18.374,11.341c3.894,0,7.051,3.149,7.051,7.033c0,3.885-3.157,7.034-7.051,7.034s-7.051-3.148-7.051-7.034
        C11.323,14.49,14.48,11.341,18.374,11.341 M33.226,32.08c0,0.633-0.513,1.146-1.146,1.146H4.583c-0.633,0-1.146-0.514-1.146-1.146
        V14.895H8.02c-0.597,0.858-0.798,2.462-0.798,3.479c0,6.135,5.003,11.127,11.152,11.127s11.153-4.992,11.153-11.127
        c0-1.018-0.145-2.596-0.885-3.479h4.583V32.08z"/>
    </symbol>
    <symbol viewBox="0 0 37.453 31.21" id="twitter">
        <path d="M36.421,0.577c-1.486,0.902-3.129,1.558-4.884,1.909C30.14,0.956,28.142,0,25.93,0
        c-4.24,0-7.682,3.528-7.682,7.879c0,0.618,0.066,1.217,0.198,1.794C12.061,9.344,6.399,6.211,2.607,1.438
        c-0.662,1.168-1.04,2.522-1.04,3.966c0,2.731,1.356,5.144,3.418,6.557c-1.257-0.038-2.444-0.396-3.481-0.981v0.096
        c0,3.819,2.648,7.004,6.167,7.725c-0.645,0.186-1.324,0.277-2.025,0.277c-0.495,0-0.979-0.047-1.447-0.139
        c0.979,3.129,3.815,5.408,7.179,5.469c-2.63,2.115-5.944,3.375-9.544,3.375c-0.619,0-1.232-0.037-1.833-0.109
        c3.4,2.232,7.441,3.537,11.778,3.537c14.136,0,21.863-12.004,21.863-22.417c0-0.343-0.006-0.685-0.021-1.021
        c1.502-1.112,2.807-2.498,3.832-4.078c-1.376,0.626-2.857,1.05-4.412,1.24C34.629,3.961,35.847,2.417,36.421,0.577"/>
    </symbol>
     <symbol viewBox="0 0 11 11"  id="phone">
       <path fill="#E45028" d="M10.758,9.774c-0.164,0.383-0.602,0.633-0.953,0.828C9.344,10.852,8.875,11,8.352,11
        c-0.727,0-1.383-0.297-2.047-0.539c-0.477-0.172-0.938-0.383-1.367-0.648c-1.328-0.82-2.93-2.422-3.75-3.75
        C0.922,5.633,0.711,5.172,0.54,4.695C0.297,4.031,0,3.375,0,2.648c0-0.523,0.148-0.992,0.398-1.453
        c0.196-0.352,0.446-0.789,0.829-0.953C1.485,0.125,2.032,0,2.313,0c0.055,0,0.109,0,0.164,0.023
        c0.164,0.055,0.336,0.438,0.414,0.594c0.25,0.445,0.492,0.898,0.75,1.336C3.766,2.156,4,2.406,4,2.648
        C4,3.125,2.586,3.82,2.586,4.242c0,0.211,0.195,0.484,0.305,0.672C3.68,6.336,4.665,7.321,6.086,8.11
        c0.188,0.109,0.461,0.305,0.672,0.305C7.18,8.415,7.875,7,8.352,7C8.594,7,8.844,7.235,9.047,7.36
        c0.438,0.258,0.891,0.5,1.336,0.75c0.156,0.078,0.539,0.25,0.594,0.414C11,8.579,11,8.633,11,8.688
        C11,8.969,10.875,9.516,10.758,9.774z"/>
    </symbol>

     <symbol viewBox="0 0 28.685 14.479"  id="arrow-scroll">
      <path fill="#FFFFFF" d="M14.332,14.479c-1.279,0-2.554-0.486-3.525-1.458L0.268,1.681c-0.376-0.404-0.353-1.037,0.052-1.413
            c0.403-0.374,1.036-0.354,1.413,0.052l10.514,11.314c1.145,1.143,3.049,1.142,4.218-0.026L26.952,0.319
            c0.378-0.405,1.011-0.426,1.413-0.052c0.404,0.376,0.428,1.009,0.052,1.413L17.903,12.995
            C16.913,13.986,15.62,14.479,14.332,14.479z"/>
    </symbol>

     <symbol viewBox="0 0 60 60.178"  id="kkal">
     <path fill-rule="evenodd" clip-rule="evenodd" fill="#FFFFFF" d="M 38.164 48.505 c 0.149 0.27 0.217 0.584 0.342 0.87 c 0.035 0.08 0.162 0.192 0.213 0.177 c 0.095 -0.029 0.225 -0.133 0.236 -0.219 c 0.086 -0.707 -0.18 -1.311 -0.586 -1.946 c -0.107 0.417 -0.441 0.695 -0.205 1.118 Z m 6.729 3.215 l 0.84 0.378 l 0.167 0.271 l 0.341 -0.895 c -0.227 -0.049 -0.227 -0.049 -0.25 -0.854 c -0.277 -0.091 -0.56 -0.131 -0.488 0.291 c 0.081 0.5 -0.105 0.733 -0.61 0.809 Z m 3.295 -3.127 v 1.179 c 0.072 0.202 0.165 0.471 0.268 0.738 c 0.017 0.043 0.075 0.094 0.118 0.096 a 0.224 0.224 0 0 0 0.156 -0.069 c 0.188 -0.213 0.061 -0.979 -0.155 -1.18 c -0.108 -0.102 -0.166 -0.273 -0.212 -0.423 c -0.032 -0.106 -0.006 -0.229 -0.006 -0.345 l -0.169 0.004 Z m -0.436 3.168 l 0.986 -0.521 c -0.451 0.143 -0.267 -0.368 -0.377 -0.418 l -0.648 0.845 c 0.014 0.031 0.026 0.062 0.039 0.094 Z m -7.489 3.283 l 0.011 0.133 l 0.707 0.469 c -0.027 -0.281 -0.008 -0.577 -0.065 -0.592 c -0.205 -0.054 -0.434 -0.015 -0.653 -0.01 Z m 4.606 -0.709 l 1.193 -0.393 l -0.059 -0.178 l -1.209 0.349 l 0.075 0.222 Z m -3.365 0.819 c 0.309 0.184 0.651 0.095 0.986 0.073 l 0.02 -0.184 l -0.988 -0.063 l -0.018 0.174 Z m -1.996 -2.413 c -0.141 0.339 -0.25 0.6 -0.367 0.876 c 0.504 0.066 0.423 -0.404 0.576 -0.642 c 0.015 -0.025 -0.143 -0.162 -0.209 -0.234 Z m 9.771 -39.934 c 0.43 -0.424 0.57 -0.966 0.635 -1.602 c -0.291 0.221 -0.659 0.231 -0.725 0.635 c -0.043 0.258 -0.164 0.503 -0.23 0.759 c -0.019 0.071 0.007 0.213 0.049 0.229 c 0.078 0.03 0.219 0.03 0.271 -0.021 Z m 3.022 5.672 l 0.697 -0.415 c -0.125 -0.152 -0.125 -0.152 0.282 -0.7 c -0.136 -0.206 -0.303 -0.381 -0.478 -0.064 c -0.207 0.375 -0.454 0.433 -0.83 0.218 l 0.359 0.693 c -0.009 0.09 -0.02 0.179 -0.03 0.268 Z m 2.845 0.271 c 0.238 -0.042 0.555 -0.619 0.518 -0.866 c -0.019 -0.125 0.033 -0.269 0.082 -0.393 c 0.034 -0.087 0.116 -0.156 0.178 -0.233 l -0.115 -0.086 l -0.619 0.783 c -0.059 0.173 -0.139 0.402 -0.211 0.632 c -0.012 0.037 0.002 0.103 0.027 0.126 c 0.033 0.03 0.096 0.045 0.14 0.037 Z m -0.394 -0.004 l -0.876 0.22 l -0.023 0.084 c 0.31 0.057 0.62 0.115 0.931 0.171 c -0.377 -0.141 0.015 -0.385 -0.032 -0.475 Z m -5.665 8.285 a 1.925 1.925 0 0 0 -0.2 -0.476 c -0.009 -0.018 -0.152 0.005 -0.193 0.048 c -0.029 0.03 -0.006 0.13 0.02 0.19 c 0.054 0.135 0.123 0.264 0.213 0.451 c 0.059 -0.076 0.172 -0.159 0.16 -0.213 Z M 47.87 15.629 c 0.024 -0.008 -0.01 -0.183 -0.016 -0.265 l -0.704 0.39 c 0.299 0.309 0.493 -0.047 0.72 -0.125 Z m -1.108 8.11 l -0.085 1.152 l 0.134 0.011 l 0.092 -1.164 l -0.141 0.001 Z m 9.399 -7.73 l -0.043 -0.918 l -0.124 0.012 c 0.023 0.306 0.049 0.611 0.073 0.917 l 0.094 -0.011 Z m -26.17 2.636 a 5.967 5.967 0 0 0 4.253 -1.754 c 1.139 -1.141 1.791 -2.702 1.789 -4.282 c -0.006 -3.307 -2.654 -5.997 -5.901 -5.997 l -0.119 0.002 a 5.818 5.818 0 0 0 -4.375 1.796 a 5.978 5.978 0 0 0 -1.7 4.185 c 0.004 3.206 2.502 5.859 5.688 6.041 c 0.122 0.005 0.246 -0.02 0.365 0.009 Z m -2.524 -6.055 a 2.511 2.511 0 0 1 0.707 -1.727 a 2.308 2.308 0 0 1 1.664 -0.723 l 0.152 0.004 l 0.142 -0.003 c 1.283 0 2.369 1.133 2.372 2.474 c 0 0.64 -0.282 1.306 -0.758 1.782 a 2.422 2.422 0 0 1 -1.755 0.719 c -0.055 0 -0.11 -0.001 -0.166 -0.005 c -1.321 -0.076 -2.356 -1.183 -2.358 -2.521 Z M 6.88 50.749 c -0.13 0.573 -0.329 1.126 -0.354 1.688 c -0.017 0.378 0.213 0.767 0.333 1.15 l 0.731 -0.74 l 1.892 1.771 c -0.329 -1.668 -0.959 -3.082 -2.602 -3.869 Z m 17.845 -10.645 v 2.709 c 0.166 0.465 0.379 1.087 0.616 1.7 c 0.038 0.099 0.175 0.217 0.271 0.222 a 0.513 0.513 0 0 0 0.359 -0.159 c 0.435 -0.489 0.141 -2.25 -0.356 -2.713 c -0.251 -0.234 -0.382 -0.628 -0.487 -0.974 c -0.074 -0.243 -0.015 -0.528 -0.015 -0.794 l -0.388 0.009 Z M 6.793 16.1 c -0.145 -0.206 -0.523 -0.301 -0.806 -0.329 c -0.114 -0.011 -0.306 0.276 -0.381 0.461 c -0.243 0.595 -0.447 1.207 -0.726 1.977 c 0.543 -0.148 0.903 -0.234 1.257 -0.344 c 0.693 -0.214 1.078 -1.169 0.656 -1.765 Z M 3.637 33.25 c -1.037 0.331 -0.615 -0.847 -0.867 -0.959 l -1.492 1.942 l 0.092 0.217 l 2.267 -1.2 Z m -0.199 25.525 c -0.049 -0.021 -0.316 0.268 -0.332 0.428 c -0.011 0.114 0.209 0.288 0.36 0.375 c 0.343 0.195 0.708 0.353 1.215 0.6 c 0 -0.264 0.1 -0.629 -0.019 -0.725 c -0.36 -0.29 -0.797 -0.492 -1.224 -0.678 Z m 16.019 -28.016 c -0.298 0.127 -0.529 0.405 -0.779 0.61 c 0.291 0.12 0.583 0.32 0.887 0.339 c 0.25 0.016 0.566 -0.13 0.748 -0.311 c 0.1 -0.099 0.042 -0.569 -0.053 -0.608 c -0.239 -0.096 -0.574 -0.128 -0.803 -0.03 Z m 2.178 4.63 l 1.699 1.829 l 0.181 -0.18 l -1.636 -1.881 a 26.07 26.07 0 0 0 -0.244 0.232 Z M 9.84 30.098 l -0.055 -0.05 l -0.016 0.056 l 0.071 -0.006 Z"></path>
    <path fill-rule="evenodd" clip-rule="evenodd" fill="#FFFFFF" d="M59.852 52.693c-.578-2.218-1.171-4.432-1.764-6.646l-.643-2.401c-.174.583-.427 1.106-1.389.981l1.009-2.405c-.537-2.023-1.071-4.048-1.605-6.072-.349-1.319-.696-2.637-1.046-3.956a1.136 1.136 0 0 1-.27-.34c-.376-.86-.579-1.807-1.03-2.619-.4-.721-.252-1.301.011-1.897-.605-2.282-1.209-4.564-1.83-6.841a4.66 4.66 0 0 0-.505-1.176l.792.29c.018-.05.035-.1.055-.15l-.988-.404-.008.023c-.774-1.125-2.018-1.788-3.496-1.788h-.073c-.812.012-1.622.013-2.431.015-.514.975-.621 2.077-.131 3.435.012.033.01.063.02.095.866-.002 1.731-.003 2.615-.017.359 0 .609.101.745.603.098.36.191.721.289 1.081-.062.035-.12.077-.183.109-.367.189-.597.052-.62-.365l-.011-.208c-.117-.035-.23-.109-.3-.08-.102.042-.173.161-.257.246.279.269.192.553.043.844-.012.025.026.078.066.187l.171-.453c.106.164.175.277.249.385.143.203.425.208.498-.008a.807.807 0 0 1 .388-.487c.663 2.453 1.318 4.908 1.97 7.364l.344 1.3c.505 1.904 1.008 3.808 1.51 5.712a6153.61 6153.61 0 0 0 1.625 6.146c.334 1.255.67 2.51 1.006 3.764.592 2.206 1.184 4.411 1.758 6.619.065.254.031.489-.012.541-1.16.457-2.091.738-2.93.884a90.02 90.02 0 0 1-6.361.87c-1.445.149-2.947.217-4.401.284l-1.169.055c-.756.037-1.512.056-2.268.077-.478.012-.955.025-1.437.042-.212.007-.397.05-.554.103H22.553a1.884 1.884 0 0 0-.533-.102c-.451-.022-.901-.04-1.352-.058-.459-.019-.919-.037-1.379-.06l-.906-.042c-1.063-.05-2.128-.1-3.19-.179l-.385-.028c-1.429-.106-2.905-.216-4.319-.408-1.695-.232-3.506-.534-5.867-.977-.717-.134-.976-.318-1.092-.489V53.6c.016-.044.031-.09.043-.139l.383-1.489c.154-.601.311-1.2.467-1.799a60.63 60.63 0 0 1-.49-.098c.23-.687.463-1.101.854-1.286.374-1.403.75-2.806 1.126-4.208.363-1.35.726-2.699 1.086-4.049.343-1.287.683-2.575 1.022-3.862.333-1.26.665-2.52 1.001-3.78.248-.929.498-1.858.748-2.787l-1.69.155.741-1.09.965.88.188-.701a542.43 542.43 0 0 0 1.875-7.074c.371-1.452.371-1.452 1.588-1.452l.23.003c1.656.037 3.314.027 4.972.018.67-.003 1.341-.007 2.009-.008.152 0 .306-.011.469-.026l2.064-.149c-.924-1.05-.937-2.623-1.906-3.655-.178-.188-.066-.646-.089-.979l.272-.07a8.431 8.431 0 0 1-.582-4.326l-.348-.074v-1.379l.583.265c.833-3.284 2.843-5.434 6.152-6.552.308-.104.656-.186 1.026-.271l.366-.087h2.404c.106.036.219.063.335.081 2.469.345 4.462 1.534 5.923 3.534 1.858 2.543 2.308 5.34 1.335 8.313-.198.606-.501 1.223-.821 1.876-.165.335-.329.67-.482 1.008l-1.134 2.495 2.926.004c-.395-.351-.92-.587-1.641-.655.065-.599-.021-1.281.247-1.768.183-.333.86-.392 1.429-.618.209.238.449.514.69.787 1.348 1.518 2.636 1.388 3.488-.335.072.076.139.169.198.283.128-.094.311-.159.35-.273.051-.144-.004-.332-.039-.495-.024-.112-.093-.214-.141-.32l.057-.131-.167.001-1.885-.003c.101-.246.194-.498.279-.758 1.326-4.055.69-8.028-1.839-11.491-1.789-2.448-4.25-4.058-7.143-4.724-.008.08-.018.16-.025.24-1.422.095-2.879.472-4.196-.312l.028-.267h-.613l-.214.055a28.06 28.06 0 0 1-.519.124c-.327.076-.666.163-1.014.264.039.492.04 1.213.107 1.917l-1.883-1.246c-3.689 1.681-6.127 4.664-7.08 8.712-.606 2.568-.404 5.118.574 7.489-1.482.007-2.965.013-4.448-.02l-.308-.003c-3.312 0-4.344 1.506-5.008 4.108-.138.539-.283 1.082-.424 1.623.043.639.133 1.283.221 2.107h-.773c-.295 1.108-.594 2.213-.886 3.298-.319 1.185-.639 2.369-.954 3.554-.336 1.262-.67 2.525-1.004 3.788-.338 1.285-.678 2.569-1.021 3.854-.359 1.348-.722 2.695-1.083 4.043l-.305 1.14c.183.344.195.938.023 1.834-.104-.252-.207-.504-.313-.756-.233.874-.469 1.748-.701 2.621-.195.733-.383 1.469-.571 2.204.245.227.476.438.705.649l-.208.231a3.77 3.77 0 0 1-.689-.135l-.181.704-.261.282v2.299l.093.275c.552 1.632 1.855 2.653 3.876 3.032 2.423.455 4.285.764 6.043 1.006 1.521.206 3.053.32 4.535.431l.383.028c1.094.082 2.191.134 3.289.185l.896.043c.471.022.941.042 1.412.061l.973.04.253.122H38.1l.244-.117c.349-.011.697-.02 1.045-.028.782-.021 1.564-.042 2.348-.08l1.157-.055c1.503-.069 3.056-.14 4.599-.299.224-.022.445-.049.668-.073.406-.765 1.195-.317 1.96-.233.242-.031.487-.06.728-.092.145-.068.282-.174.41-.33l-1.183-1.438.155-.339c.372.191.791.326 1.107.586.452.373 1.008.771 1.191 1.275a85.79 85.79 0 0 0 1.571-.26c1.081-.188 2.23-.53 3.619-1.079 2.092-.825 2.571-3.02 2.133-4.711zM43.631 17.656l.007.358a.32.32 0 0 1-.161-.004l.154-.354zm-1.98-7.687l-1.434-1.715c1.363-.173 1.68.156 1.434 1.715zM4.707 57.057h3.07c-1.404.804-2.442.818-3.07 0zm24.868.547l-.022-.306c.506-.011 1.032-.104 1.501.022.131.035.088.716.149 1.362l-1.628-1.078zm5.101.114c-.77.051-1.557.255-2.27-.169l.041-.398 2.273.145-.044.422z"></path>
    </symbol>



 <symbol viewBox="0 0 45.748 44.625" id="burger" xmlns="http://www.w3.org/2000/svg"><g fill-rule="evenodd" clip-rule="evenodd"
    fill='#fff'>
    <path d="M8.502 31.551l-.015-.742.133-.068c.069.152.167.297.201.457.05.23.127.496.056.701-.055.162-.314.254-.496.387-.348-.66-.842-.865-1.437-.65-.105.039-.175.189-.252.295-.241.33-.48.662-.714.998-.109.156-.204.32-.335.529l-1.236-.979.069-.133c.183.094.375.17.546.283.227.15.415.223.581-.08.031-.057.154-.063.236-.09.083-.029.226-.045.237-.09a.586.586 0 0 0-.04-.334c-.079-.189-.187-.367-.283-.549.051-.023.102-.049.152-.072l.345.584c-.078-.893.632-.66.975-.922.626-.482.636.617 1.277.475zm7.505 6.412c-.75-.012-1.312.143-1.558.879-.103.307-.503.301-.704.014-.105-.154-.203-.314-.353-.545l-.242.641c-.057-.154-.112-.229-.094-.264.211-.414.335-.816-.062-1.197.119-.121.22-.287.364-.348.099-.041.259.064.424.113l.015.295c.033.592.359.785.878.518.224-.115.449-.24.652-.389.364-.268.549-.141.68.283zm1.388-16.06c-.091.901-.292 1.669-.899 2.27-.074.073-.274.073-.385.03-.059-.023-.095-.225-.069-.325.095-.362.266-.71.326-1.075.092-.573.614-.586 1.027-.9zm4.768 8.726c-.577.775-.577.775-.4.992l-.988.588.044-.379a225.53 225.53 0 0 0-.509-.982c.533.305.883.223 1.176-.309.248-.449.485-.201.677.09zm-1.496 10.314l-.676-.102-.117.48-.913-1.076c.712-.462.981-.366 1.706.698zm4.2-9.476l.878-1.109c.054.041.108.082.162.121-.086.109-.202.207-.251.33-.068.176-.143.381-.116.557.054.352-.396 1.168-.733 1.227a.261.261 0 0 1-.198-.051c-.038-.033-.056-.127-.038-.18.099-.327.214-.651.296-.895zm-1.861 1.431l1.241-.313c.067.129-.488.473.044.674l-1.318-.242c.012-.04.023-.079.033-.119zm-9.307-1.269l-.317-.969.09-.133c.21.16.456.293.607.496.042.057-.196.323-.38.606zm4.736 1.4l1.399.57-.078.213c-.473-.172-.945-.346-1.417-.52.033-.087.064-.175.096-.263zm-1.418 10.328c.435.342.806.637 1.257.994-.836-.126-1.265-.456-1.257-.994zm2.672-6.273c.444.242.375.605-.315 1.201.055-.191.114-.385.165-.578.053-.205.1-.412.15-.623zm-3.695 7.541c-.127-.264-.226-.447-.302-.639-.035-.084-.068-.227-.026-.27.058-.061.261-.092.274-.068.116.215.229.439.283.674.016.078-.143.196-.229.303zm1.332-4.666c-.298-.303-.588-.607-.023-1.18.074.465.128.809.184 1.152l-.161.028zm-2.622-8.553l.884.795-.155.158c-.332-.229-.72-.4-.875-.805.049-.048.097-.099.146-.148zm-1.226-3.058l.999-.552c.008.116.056.364.022.375-.323.11-.596.614-1.021.177zm-.35 11.31l-.13 1.648a6.081 6.081 0 0 1-.19-.016l.121-1.631.199-.001zm13.055-12.25l.061 1.301-.133.016-.104-1.299.176-.018zM18.652 6.31l-.901.071-.323.465.57.557c.673.658 1.439 1.02 2.16 1.02.641 0 1.213-.295 1.571-.811.288-.416.236-.938.179-1.211-.087-.418-.285-.733-.575-.913-.493-.306-.984-.461-1.459-.461-.518 0-1.258.193-1.909 1.059.213-.034.428-.071.638-.091l.049.315zm-9.866 4.162l-.807-.968-.7 1.049c-.042.063-.101.129-.157.198-.281.338-.705.849-.448 1.489.2.496.498.925.762 1.304.091.132.183.263.269.396l.395.517 1.531-.275.185-.514c.021-.06.057-.125.09-.192.165-.335.44-.894.115-1.447-.266-.454-.596-.827-.915-1.188-.107-.122-.216-.244-.32-.369zm20.346.539l.666.866 2.879-2.983-.756-.651a5.256 5.256 0 0 1-.213-.203c-.341-.336-.635-.625-1.097-.625l-.274.004-.221.131c-.619.363-1.136.826-1.6 1.27-.643.609-.131 1.25.242 1.719.113.139.243.302.374.472zm-14.539 2.93c.065.064.131.127.181.181l.661.725 1.025-1.009c.374-.361.76-.735 1.112-1.16.494-.598.079-1.182-.225-1.609-.102-.144-.225-.316-.354-.515l-.743-1.148-.807 1.104c-.142.193-.273.371-.396.535-.377.505-.675.904-.937 1.359-.397.688.154 1.22.483 1.537zm-1.61-7.607a9.296 9.296 0 0 0-.236-.145l-.231-.131h-.253c-.467 0-.739.291-1.054.627-.063.068-.126.137-.18.188l-.7.664 1.001 1.011c.088.091.182.183.272.273.21-.165.53-.227.968-.178-.237.146-.348.415-.484.644.134.123.265.248.408.367l.279.219h.337c.364 0 .602-.17.995-.452.141-.101.311-.224.503-.35l1.139-.747-1.621-1.186a21.31 21.31 0 0 0-.968-.693 8.154 8.154 0 0 1-1.252-.116c.359 0 .719.005 1.077.005zm9.988 7.756l.733 1.051 2.239-2.893-1.389-1.453c-.008.1-.03.212-.07.339-.068.216.294.581.479.861.103.158.248.287.483.551-1.015-.304-1.081-.354-1.439-1.128-.224-.48-.434-.967-.648-1.452l-.486.743c-.059.09-.135.18-.209.271-.285.348-.674.823-.63 1.448.042.596.411 1.029.708 1.377.08.095.162.189.229.285zm1.805-1.405c.11.04.202.396.152.56-.177.584-.797.96-1.715 1.012-.052-.121-.224-.322-.192-.481.114-.563 1.253-1.272 1.755-1.091zm7.289 1.769c.104.06.206.134.31.206.36.255.809.572 1.445.598.581 0 1.006-.348 1.346-.629.088-.071.175-.146.262-.203l1.075-.705-2.835-2.31-2.748 2.38 1.145.663z"/><path d="M17.044 2.939l-.373.141c.044.177.147.375.149.545a25.381 25.381 0 0 1 5.889-.699c1.043 0 2.075.062 3.088.182-.216.115-.396.305-.591.512-.064.067-.129.137-.183.188l-.698.658.993 1.02c.358.375.729.762 1.154 1.115l.282.224h.34c.355 0 .605-.171.981-.429.144-.1.317-.219.515-.342l1.171-.729-1.621-1.22A19.017 19.017 0 0 0 27 3.28c3.531.593 6.788 1.915 9.438 3.868 3.064 2.257 4.755 4.932 5.171 8.176l.008.074H17.251c.204.1.238.354.159.852l-.713-.852H6.009c.059.242.048.589-.043 1.068-.099-.239-.193-.48-.297-.718-.051-.118-.107-.233-.162-.351H3.9l.021-.115c.158-.842.307-1.638.563-2.365.855-2.424 2.507-4.402 5.198-6.229 1.619-1.098 3.459-1.96 5.43-2.589l-.355-1.866c-2.226.69-4.306 1.657-6.132 2.897a19.497 19.497 0 0 0-2.238 1.764c.045.226-.045.729.532.546-.51.271-1.02.539-1.529.809-.022-.048-.042-.099-.062-.146l.569-.74c-1.488 1.479-2.546 3.108-3.189 4.929-.305.865-.475 1.77-.638 2.646-.074.395-.149.795-.238 1.201l-.25 1.145h5.971l-1.022-.217v-.711l1.5.682-.081.246h35.681l-.092-1.44a10.197 10.197 0 0 0-.059-.759c-.483-3.781-2.421-6.875-5.922-9.453-4.018-2.96-9.291-4.59-14.847-4.59-2.055 0-4.075.235-6.011.672l.012.029c-.826.704.385.707.332 1.196zm-6.631 1.749l.687.627c-.275.024-.628.058-1.187.107l.5-.734z"/><path d="M15.996 3.127c-.096.024-.192.051-.288.076.011.227-.013.473-.006.703.205-.06.417-.104.625-.158l-.331-.621zm-.553-1.098l-.01.002.003.004zm20.978 9.32l.855 1.039.055-.045c-.222-.56-.377-1.157-.798-1.604-.119-.127-.045-.436-.06-.66l.229-.06 1.328 1.749 1.634-1.342-.995-1.021c-.432-.447-.806-.832-1.215-1.183l-.266-.229h-.352c-.721 0-1.443 1.072-1.449 1.082l-.271.519.311.47c.309.463.656.881.994 1.285zm6.787 20.313l.236.217c.029-.41.04-.822.014-1.23l-.057-.883h-.885c-.34 0-.684.01-1.027.021-.326.01-.652.02-.979.02-.422 0-.766-.018-1.082-.055a13.718 13.718 0 0 0-1.637-.104c-2.473 0-4.43.84-5.947 2.561a13.361 13.361 0 0 1-.668-.82c-1.077-1.465-2.551-1.652-3.715-1.652h-.076c-.993.008-2.014.014-3.07.02.203.543.299 1.098.226 1.703-.007.059-.054.123-.114.182 1.022-.006 2.01-.012 2.973-.02h.063c1.143 0 1.717.232 2.197.885.324.441.686.854 1.034 1.252.156.178.315.359.474.545l.803.949.697-1.029c1.261-1.859 2.842-2.689 5.125-2.689.336 0 .693.023 1.068.059v-1.281c.087 0 .174-.004.262-.004 0 .178-.041.369.01.533.07.234.159.5.328.658a.66.66 0 0 1 .12.158c.286.021.584.037.931.037.346 0 .691-.012 1.037-.021.01-.002.021-.002.031-.002-.111 1.91-.955 3.83-2.387 5.381-1.765 1.912-4.182 3.029-6.631 3.064-6.508.1-13.179.09-19.823-.029-2.327-.041-4.633-1.094-6.325-2.891-1.466-1.559-2.346-3.537-2.486-5.545l11.911.008c3.099 0 5.707-.006 8.089-.016a.497.497 0 0 1-.083-.119c-.194-.441-.298-.93-.531-1.348a.928.928 0 0 1-.122-.414c-2.184.008-4.571.012-7.354.012l-13.767-.009-.039.902c-.119 2.811.978 5.66 3.01 7.818 2.038 2.164 4.832 3.436 7.664 3.484 3.638.064 7.308.098 10.907.098 2.993 0 6.014-.023 8.978-.066 2.962-.045 5.874-1.385 7.987-3.672 1.59-1.723 2.567-3.84 2.822-5.994l-.691.063.499-.737zm-16.623 8.859l-.016-.205c.341-.008.696-.07 1.012.014.088.023.061.482.102.918-.518-.344-.808-.533-1.098-.727zm3.438.079c-.518.033-1.049.172-1.529-.115.01-.09.02-.178.028-.268.511.033 1.021.064 1.532.098l-.031.285zM2.93 26.396c3.467.01 6.939.012 10.438.014a6.04 6.04 0 0 1-.207-.42c-.168-.384.262-1.04.698-1.18a.73.73 0 0 0 .38-.285l-1.797-.001.607 1.688c-.497-.218-.915-.975-1.091-1.689-3.019 0-6.024-.004-9.022-.012-.334-.001-.61-.104-.797-.295a.933.933 0 0 1-.254-.693c.015-.785.689-.953 1.252-.955 1.915-.01 3.832-.013 5.747-.014a.692.692 0 0 1-.018-.18c.017-.38.151-.752.239-1.139.649.311 1.059.77 1.335 1.319l3.641.002a10.133 10.133 0 0 1-.099-.696c.203.295.354.515.465.696l1.549.001c.579 0 1.158.004 1.738.008.583.004 1.167.008 1.75.008 1.025 0 1.862-.013 2.634-.039l.103-.002c.129 0 .244.012.354.029-.084-.091-.168-.195-.251-.271.223-.219.419-.486.684-.623.081-.041.349.287.68.576-.296.194-.494.387-.675.467.188.098.363.234.546.436.428.472.869.912 1.347 1.377l-9.704.002h-.554c-.167.674-.599 1.386-.95 1.482l-.251.25c.066.051.135.102.202.152h1.554l14.343-.002-1.646-1.615c-.371-.364-.721-.699-1.053-1.018-.712-.684-1.325-1.272-1.893-1.896-.03-.033-.063-.063-.095-.096-.021.125-.244.239-.375.359-.156-.177-.389-.336-.44-.539-.018-.071.088-.178.235-.325-.598-.425-1.267-.63-2.058-.63l-.168.002c-.75.026-1.566.039-2.569.039-.58 0-1.159-.005-1.738-.008-.583-.004-1.167-.008-1.77-.008l-6.927-.002h-.361l.214.47c-.675-.135-1.229-.247-1.785-.356.013-.041.028-.071.042-.109-.945.002-1.891.003-2.836.007l1.05.966-.14.156c-.534-.067-1.057-.148-.971-1.122l-1.134.003a3.91 3.91 0 0 0-.893.113c.021.014.042.024.063.039-.768.59-1.213 1.195-.873 2.14.142.393-.269.706-.702.574-.208-.062-.417-.138-.703-.235-.005.057-.019.111-.02.17l.002.029.194.609a2.08 2.08 0 0 0-.154-.085c.095.569.351 1.088.75 1.495.54.554 1.299.861 2.138.862zm41.075-4.104c-.275-.465-1.227-.737-2.1-.759-.086.234-.27.437-.506.51-.238.074-.481.133-.848.232.076-.209.143-.398.207-.579a1.043 1.043 0 0 0-.3.174c-1.174 1.034-2.284 2.14-3.419 3.218l.33.381c1.725.006 3.457.1 5.166-.059.649-.061 1.474-.633 1.781-1.205.252-.463.01-1.375-.311-1.913z"/><path d="M35.312 32.168c.194-.514.391-1.027.527-1.389-.352-.076-.352-.076-.389-1.322-.428-.141-.866-.203-.757.451.13.771-.159 1.135-.944 1.252l1.303.588c.086.141.173.279.26.42zm10.422 2.297c.061-.066-.094-.469-.139-.467-.338.016-.673.092-1.139.174l.535.852c.28-.2.55-.344.743-.559zm-.369-2.846c-.888-.1-1.295.252-1.271 1.014.841.174.767-.705 1.271-1.014zm-5.651-1.203c-.7.221-.415-.572-.586-.646l-1.006 1.309c.021.047.041.098.063.146.51-.272 1.02-.539 1.529-.809zm-4.15 4.189l-.092-.273c-.625.178-1.249.359-1.873.539l.115.346c.617-.203 1.234-.406 1.85-.612zm2.554 3.368c.116.254.236.5.347.752.104.236.197.479.297.719.22-1.157-.002-1.583-.644-1.471zm-2.809-17.961c-.2.085-.356.273-.524.411.195.081.393.216.597.229.169.011.382-.087.505-.21.066-.066.029-.383-.035-.409-.161-.066-.388-.088-.543-.021zm-9.587 13.095c.025-.041-.221-.252-.322-.363l-.569 1.359c.78.102.655-.626.891-.996zm2.967-20.168c.016-.186.014-.376.051-.558.054-.258.137-.511.212-.786h-.82c-.083.227-.231.433-.21.619.027.223.166.455.319.629.081.094.294.069.448.096zm-2.811-5.472c-.686.302-.943 1.207-.453 1.955l.453-1.955zm-12.94 4.023c.061-.068-.094-.469-.139-.467-.338.015-.673.092-1.138.173l.535.852c.279-.198.55-.344.742-.558zm14.441-1.294c-.563-.525-.782-.539-1.44-.114l.31.589 1.13-.475zm-24.61 1.435a44.415 44.415 0 0 1-.092-.275l-1.874.54.115.345 1.851-.61zm1.493 6.994c-.002.021 0 .035-.002.056h.062l-.06-.056zm21.696-.256l.275.283.806-1.08c-.685-.126-.997.137-1.081.797zm-3.81 3.699c.177-.432.063-.792-.505-1.041l.297 1.094.208-.053zm4.772-1.36v-1.464l-.271.012.107 1.485.164-.033zM4.147 0l-.165.156L5.128 1.39l.122-.122L4.147 0z"/></g>
</symbol>

 <symbol viewBox="0 0 38.126 34.138"  id="cheese">
       <path d="M1.425 4.438c.175-.269.354-.537.535-.802.058-.086.109-.206.191-.24.462-.186.855-.038 1.147.473.139-.108.34-.189.38-.317.05-.163-.018-.37-.063-.55-.032-.125-.113-.236-.171-.355l-.103.058.032.583c-.501.131-.538-.734-1.019-.34-.261.216-.826.053-.741.752l-.287-.45-.118.062c.081.141.17.277.238.425a.448.448 0 0 1 .039.261c-.006.035-.119.051-.183.075-.063.025-.16.033-.183.078-.124.241-.273.19-.456.077-.136-.084-.29-.14-.436-.208l-.05.107c.331.246.663.489.998.737.098-.168.169-.3.25-.426zm14.36-.755l-.967.277-.023.095 1.043.156c-.424-.145.002-.431-.053-.528zm-8.04-.958c-.124-.157-.322-.254-.491-.373l-.067.106.275.753c.137-.228.317-.443.283-.486zm4.473 5.11c-.035.154-.075.307-.114.46.526-.486.571-.775.216-.953-.034.165-.065.332-.102.493zM7.999.47c.026-.011-.017-.204-.027-.294-.299.178-.528.314-.772.461.347.331.549-.072.799-.167zm5.893 26.997l1.128.37c.019-.056.038-.112.055-.169-.371-.137-.743-.273-1.115-.412l-.068.211zm-.619 5.269c.042-.007.084-.016.125-.024l-.174-.902c-.429.464-.193.697.049.926zm-3.518 1.169c.05.004.1.005.15.007l.06-1.301a8.625 8.625 0 0 1-.157.007l-.053 1.287zm19.68-24.287c-.015.03.031.087.08.205l.174-.509c.123.179.205.301.293.419.165.22.48.215.552-.028.175-.588.612-.724 1.202-.733-.113-.332-.263-.426-.541-.205a3.905 3.905 0 0 1-.502.323c-.401.225-.662.081-.705-.384l-.02-.23c-.131-.035-.26-.115-.337-.078-.112.052-.187.184-.278.282.323.288.236.609.082.938zm6.412-6.633c-.217.427-.488.499-.917.273.143.254.284.507.427.759-.008.102-.017.2-.024.301l.761-.49c-.145-.165-.145-.165.289-.789-.161-.226-.352-.415-.536-.054zm2.227 1.537l-.967.277-.023.095 1.043.156c-.424-.144.002-.43-.053-.528zm-8.04-.958c-.124-.156-.321-.253-.491-.373a6.056 6.056 0 0 0-.066.105l.275.754c.136-.227.316-.443.282-.486zm4.594 1.874l-1.114-.412-.069.211 1.129.37.054-.169zm-.121 3.237c-.035.154-.076.307-.114.46.526-.486.571-.775.216-.953-.033.165-.065.332-.102.493zm-1.68 1.83c.042-.007.083-.016.125-.024l-.175-.902c-.429.465-.194.697.05.926zm-1.693-5.926l.118-.129c-.239-.199-.478-.401-.716-.602-.036.042-.074.082-.111.122.133.313.443.438.709.609zm-.846-3.269c.026-.01-.017-.204-.026-.294-.299.177-.528.314-.771.461.344.332.547-.072.797-.167zm-12.57 26.686l.09-.001a4.228 4.228 0 0 0 4.134-4.311c-.049-2.28-1.943-4.136-4.223-4.136l-.09.001a4.195 4.195 0 0 0-2.958 1.313 4.178 4.178 0 0 0-1.174 2.999c.055 2.281 1.948 4.135 4.221 4.135zm.001-6.024c.958 0 1.766.779 1.8 1.735a1.805 1.805 0 0 1-1.717 1.864l-.077.002c-.337 0-.652-.1-.923-.264l.027-.04c-.114-.162-.247-.298-.38-.231a1.795 1.795 0 0 1-.528-1.232 1.804 1.804 0 0 1 1.75-1.833l.048-.001zm-8.76 5.163l.086-.001a3.096 3.096 0 0 0 1.935-.762c.156.193.39.304.601.438l.118-.13-.547-.458a3.112 3.112 0 0 0 .931-2.304c-.047-1.675-1.45-3.038-3.126-3.038l-.088.001a3.1 3.1 0 0 0-2.178.984 3.108 3.108 0 0 0-.859 2.231 3.15 3.15 0 0 0 3.127 3.039zm-.001-3.942v.124c.438 0 .69.25.692.686.002.438-.249.691-.699.696-.4 0-.636-.231-.702-.689.06-.459.297-.692.705-.692l.004-.125zm17.733.726l.063-.001a2.832 2.832 0 0 0 2-.893c.53-.56.811-1.284.789-2.042a2.873 2.873 0 0 0-2.951-2.769 2.868 2.868 0 0 0-2.753 2.896 2.865 2.865 0 0 0 2.852 2.809zm-.389-2.868c-.01-.07.105-.213.227-.364.053-.064.109-.136.167-.213.054.076.106.145.154.208.13.171.233.306.229.402-.003.106-.254.36-.334.369-.171-.03-.423-.259-.443-.402z"/><path d="M35.343 27.38c-.235-.027-.471-.055-.707-.071-1.23-.083-2.194-1.053-2.24-2.255-.048-1.236.861-2.283 2.113-2.436.218-.026.435-.063.65-.1.118-.021.235-.041.354-.06l.108-.017-.177-6.606-.048-.035a6.963 6.963 0 0 0-.187-.138c-.138-.099-.268-.192-.384-.303a1739.075 1739.075 0 0 0-4.186-3.944l-1.783-1.679-.702 1.844-.415-.674-2.158-.972.537.509c.728.688 1.454 1.379 2.18 2.068l2.042 1.938c.094.09.183.184.292.298l.01.011-3.958-.549c-4.08-.567-8.298-1.153-12.449-1.712-.65-.087-.962-.236-.977-.852-.004-.235-.116-.466-.227-.695-.801-1.667-2.157-2.586-3.92-2.657-.153-.007-.298.003-.445.009.209-.12.473-.165.781-.17-.114-.332-.263-.425-.541-.205a3.975 3.975 0 0 1-.502.323c-.402.226-.663.081-.705-.384l-.02-.23c-.131-.035-.26-.115-.337-.078-.112.051-.187.183-.278.282.263.234.25.492.154.757-.917.368-1.68 1.063-2.273 2.081-.13.225-.325.416-.427.419l-.072.001c-.272 0-.55-.052-.873-.111l-.272-.05.31-.379c.288-.354.561-.689.848-.999a23.123 23.123 0 0 1 6.878-5.103l.947.311.055-.169-.742-.274a27.758 27.758 0 0 1 5.265-1.853c.52-.127.8-.057 1.16.287 1.873 1.788 3.752 3.568 5.632 5.349l1.828 1.732.068-.018c.979-.262 1.469-.799 1.539-1.69l.006-.06-.044-.041a600.064 600.064 0 0 1-3.163-3.013c.12-.181.239-.362.361-.542.058-.086.108-.206.191-.239.461-.187.854-.038 1.147.473.139-.108.34-.189.379-.318.051-.162-.018-.369-.063-.549-.031-.125-.112-.235-.171-.354a3.379 3.379 0 0 1-.103.056c.012.203.021.406.031.583-.5.132-.537-.733-1.018-.339-.262.216-.826.052-.741.752l-.288-.45-.117.062c.081.141.17.277.238.425a.447.447 0 0 1 .039.261c-.002.012-.026.02-.046.027a332.387 332.387 0 0 1-3.525-3.432C19.188.428 18.293 0 17.21 0c-.462 0-.966.081-1.543.246-2.669.767-5.05 1.758-7.161 2.98l-.259-.217-.111.121a.73.73 0 0 0 .161.231c-3.38 2.003-6.063 4.61-8.096 7.884-.022.036-.06.07-.099.107-.022.021-.045.042-.066.064L0 11.454l.466 17.339-.001-.001.018.621.562.071-.385-.459.078-.17c.086.041.173.08.26.119.281.127.546.246.763.424l.272.22 1.048.138c1.313.172 2.627.344 3.939.525l2.977.414c-.069.063-.131.144-.197.216.323.288.236.608.081.938-.014.029.032.087.081.204l.173-.508c.124.179.205.3.293.418.165.221.48.215.552-.027.175-.589.612-.724 1.202-.734a.747.747 0 0 0-.11-.218c4.518.627 9.035 1.255 13.551 1.885l.101.014.051-.14c.077-.211.157-.43.218-.651.211-.775.512-.865.72-.865.21 0 .477.104.811.316-.535.425-.944.827-1.247 1.229l-.129.17 3.557.495c1.047.146 2.111.313 3.139.476l1.439.225.012.001h.011c.503-.013 1.005-.025 1.507-.04l.125-.004-.18-6.667-.415-.048zM6.35 26.073c-.031-.125-.112-.236-.171-.354l-.102.057.031.583c-.501.13-.538-.735-1.018-.339-.262.216-.826.052-.741.752l-.288-.45c-.039.02-.078.04-.117.062.081.141.17.276.238.424a.458.458 0 0 1 .039.262c-.007.036-.12.051-.184.076-.063.024-.16.032-.183.078-.048.094-.101.134-.157.152l-.213-.029c-.028-.015-.056-.027-.086-.046-.136-.084-.289-.14-.435-.208l-.051.106.113.083-.135-.019-.376-13.965.38.052c.411.058.8.111 1.196.146.298.027.421.139.524.478.565 1.872 1.863 2.994 3.752 3.247 1.792.235 3.303-.475 4.331-2.034.244-.37.417-.438.796-.382 3.601.515 7.265 1.022 10.808 1.514l3.017.419.027.004 1.084-.314.163.488.271.038 2.74.382 1.452.204.019.617c.021.731.043 1.423.039 2.12-.001.073-.135.241-.265.305-1.956.964-2.916 2.486-2.854 4.526.061 2.013 1.092 3.464 3.066 4.313.15.065.299.212.305.278.041.454.049.915.058 1.402l.009.414-1.566-.218-13.219-1.84-14.442-2.011c.162-.248.326-.494.492-.739.058-.086.108-.205.191-.238.461-.187.855-.038 1.147.472.139-.108.34-.189.38-.317.048-.164-.019-.371-.065-.551zm25.511 5.308l1.971 1.814-.16.177c-.984-.123-1.895-.271-1.813-1.963l.002-.028zM9.058 14.845a2.03 2.03 0 0 1-.783-.108l-.121-.041-.038.121c-.183.578-.443.92-1.133.886l.578-1.379-.062-.06a2.04 2.04 0 0 1-.64-1.377 2.077 2.077 0 0 1 .541-1.511c.374-.411.883-.65 1.435-.675l.091-.002c1.124 0 2.037.876 2.078 1.994a2.088 2.088 0 0 1-1.946 2.152zM7.4 8.476l.034.049-.057.016.023-.065zm4.242 22.522a3.968 3.968 0 0 1-.502.322c-.402.226-.663.081-.706-.384a8.364 8.364 0 0 0-.016-.183l1.326.185c-.034.019-.064.03-.102.06z"/>
    </symbol>
     <symbol viewBox="0 0 42 37.754"  id="cucumber">
       <path d="M1.784 16.222a80.46 80.46 0 0 1 1.367-.861c.146-.091.306-.24.454-.234.832.032 1.333.529 1.428 1.508.286-.072.649-.056.798-.226.188-.213.226-.575.28-.881.037-.212-.01-.438-.018-.658l-.195.016-.353.912c-.855-.144-.319-1.49-1.321-1.215-.548.15-1.297-.487-1.648.64l-.13-.885-.221.013c.026.271.07.541.072.811a.771.771 0 0 1-.119.427c-.034.05-.217-.003-.333-.009-.113-.005-.266-.06-.332-.006-.354.284-.547.103-.75-.194-.15-.221-.347-.412-.522-.615l-.15.128 1.02 1.808c.264-.19.463-.344.673-.479zm7.383 11.427c.667-.776 1.429-.684 2.338-.298.052-.583-.111-.829-.687-.683a6.298 6.298 0 0 1-.988.148c-.376.035-.638-.047-.779-.223a.631.631 0 0 0 .113-.492.863.863 0 0 0-.147-.354c.043-.127.089-.255.128-.365-.177-.143-.32-.352-.462-.351-.207.003-.412.155-.617.243.015.035.022.066.034.099-.196.065-.398.124-.516.258a9.699 9.699 0 0 0-1.064 1.452c-.187.314-.05.648.258.868.294.21.694.175.942-.103.18-.203.313-.448.485-.66.018-.021.042-.041.062-.062.012.062.024.126.037.185.101.453.586.662.863.338zm13.494-6.175c-.09-.453-.254-.871-.78-.447-.622.503-1.088.429-1.587-.209l.132 1.451-.243.439c.554-.082 1.108-.167 1.498-.227-.11-.349-.11-.349.98-1.007zm-4.319 2.463l-1.421-1.393-.248.275 1.469 1.338.2-.22zm-1.91 4.177c-.165.23-.325.46-.493.684-.158.211-.325.416-.488.623 1.136-.383 1.402-.792.981-1.307zm19.44-4.885c-.58-.075-.832.081-.708.661.069.323.095.66.113.992.042.769-.368 1.055-1.097.773a41.076 41.076 0 0 1-.362-.143c-.149.172-.363.307-.366.449-.006.206.139.416.22.626.671-.271 1.088.097 1.468.573.033.043.152.017.369.031l-.637-.637c.357-.055.603-.086.845-.131.453-.084.679-.561.367-.85-.751-.693-.631-1.451-.212-2.344zm5.617-3.22l.488-.755c-1.67.292-1.932.562-1.762 1.668.556-.159 1.109-.317 1.785-.513-.298-.234-.427-.336-.511-.4zm-14.991 1.769c-.325.071-.618.295-.923.461l.109.18 1.335.145c-.241-.376-.431-.805-.521-.786zm10.319-3.445c.223.173.447.342.664.518.205.166.404.34.605.511-.341-1.15-.74-1.43-1.269-1.029zm2.166 4.396l.055-.206-1.482-.406c.38.987.902.806 1.427.612z"/><path d="M35.303 6.644c-.313-.777-.545-1.586-.835-2.372C33.073.498 29.691-.385 26.969.137c-3.033.582-5.194 2.406-6.804 4.964-.37.587-.739 1.175-1.129 1.748a2.298 2.298 0 0 1-.48.485c-.505.397-.734.916-.58 1.528.103.409-.006.699-.245.994-.674.832-1.511 1.472-2.405 2.042a.662.662 0 0 1-.364.076c-.98-.038-1.495.443-1.7 1.405-.136.638-.354 1.294-.694 1.844a11.926 11.926 0 0 1-3.401 3.546c-.112.078-.252.153-.384.161-1.131.073-1.523.432-1.688 1.561-.166 1.133-.617 2.099-1.594 2.768-.454.311-.89.646-1.329.978-.219.165-.426.213-.715.144-.856-.203-1.698.322-1.777 1.145-.104 1.084-.495 2.072-.848 3.082-.352 1.006-.637 2.034-.799 2.556-.281 3.134 1.25 5.524 3.691 6.261.684.207 1.42.324 2.133.33 1.472.013 2.945-.123 4.417-.113 1.39.009 2.496-.402 3.16-1.699a.602.602 0 0 1 .285-.243 94.937 94.937 0 0 1 2.399-1.007c.814-.324 1.643-.505 2.541-.362.897.143 1.592-.491 1.682-1.403.019-.19.115-.442.26-.54.712-.482 1.44-.94 2.167-1.399.006.277.133.533.652.717l-.888.098.005.222c.271-.017.543-.051.813-.042.145.003.309.05.421.135.049.035-.011.217-.021.332-.009.113-.068.264-.019.331.271.364.083.55-.222.741-.227.143-.424.332-.635.5l.123.156 1.844-.953c-.178-.271-.324-.475-.452-.69a92.291 92.291 0 0 1-.81-1.398c-.085-.149-.229-.313-.217-.462.002-.031.016-.053.02-.084.092-.057.18-.119.271-.176.211-.129.49-.182.743-.205.763-.07 1.303-.48 1.425-1.221.114-.684.465-1.207.938-1.67a6.528 6.528 0 0 1 2.862-1.652c.792-.218 1.276-.852 1.149-1.602-.144-.846.084-1.563.553-2.25.553-.811 1.074-1.645 1.631-2.454.078-.114.264-.199.41-.213 1.079-.107 1.662-1.026 1.35-2.055-.121-.396-.189-.873-.089-1.263.423-1.635.985-3.237.962-4.961-.001-.137.145-.304.266-.409.635-.552.736-1.308.32-2.028a14.754 14.754 0 0 1-.87-1.789zm-5.462 12.104c-.056.083-.118.163-.175.241-.671-.292-.82-.219-1.309.287-.301.311-.693.561-1.087.749-.503.238-.745.554-.603.984.121.369.437.527.85.47.226-.011.433-.071.624-.171-.13.604-.247 1.201-.401 1.787-.025.1-.215.167-.34.227-.295.142-.575.304-.854.465a2.6 2.6 0 0 1 .284-.355c.121-.127.311-.187.471-.277l-.137-.229-1.623.916c-.223.258-.521.594-.809.943-.047.057-.071.178-.041.237.018.035.05.069.087.097-.48.471-.917.988-1.254 1.613-.289.533-.651.821-1.19 1.061-1.778.785-3.381 1.832-4.625 3.364a.533.533 0 0 1-.322.176c-.756.083-1.475.289-2.179.544-.259-.349-.615-.389-1.238-.27l.219.67a109.83 109.83 0 0 1-1.876.776c-.635.257-1.053.74-1.407 1.303-.079.125-.24.275-.37.281-1.5.072-3.002.123-4.504.165-.302.008-.605-.044-.907-.077-1.736-.191-2.364-1.715-2.153-2.912.126-.719.39-1.415.616-2.115a44.4 44.4 0 0 1 .706-2.002.63.63 0 0 1 .296-.323c1.491-.694 2.818-1.644 3.883-2.871.579-.665.871-1.577 1.304-2.371.09-.165.2-.351.352-.446a16.765 16.765 0 0 0 2.921-2.32c.074.171.169.333.278.489-.158.259-.267.534-.284.798a.746.746 0 0 0 .583.801.715.715 0 0 0 .848-.505c.121-.436.366-.69.793-.825a.713.713 0 0 0 .5-.887c-.089-.357-.428-.576-.832-.538-.483.045-.995.383-1.367.821l-.222-.459a13.132 13.132 0 0 0 2.594-3.969c.052-.125.191-.241.318-.307.425-.222.828-.473 1.217-.738a.909.909 0 0 0 .396.53c.407.27.73.663 1.113.974.107.086.368.152.428.094.1-.098.19-.295.176-.428.31-.063.531-.322.587-.743.059-.451.292-.765.673-1 .436-.271.546-.687.306-1.067-.221-.349-.651-.437-1.07-.198-.732.417-1.151 1.038-1.31 1.712a4.881 4.881 0 0 0-.515-.45 12.341 12.341 0 0 0 1.777-1.764c.563-.685.939-1.454.996-2.357a.773.773 0 0 1 .138-.351c.492-.765 1.007-1.517 1.484-2.291.912-1.482 2.1-2.651 3.719-3.331 1.104-.463 2.234-.561 3.385-.149.796.287 1.369.821 1.694 1.584.328.769.586 1.568.88 2.352.092.245.208.486.315.728-.043-.041-.09-.08-.13-.121-.122-.125-.176-.318-.26-.48l-.233.128c.274.533.55 1.065.855 1.655l.048.044c-.033.461-.205.935-.294 1.401a3.022 3.022 0 0 0-.047.475c-.009.28-.058.492-.343.669-.172.106-.234.432-.287.671-.051.227-.057.412-.367.426-.203.008-.36.064-.492.142-.146-.062-.287-.311-.69-1.037-.455.073-.88.222-.476.764.48.64.389 1.103-.268 1.578l1.44-.077a.87.87 0 0 0 .19.104l.256.154-.012-.095c.023.003.04.013.063.015l.234.02c-.095.721-.187 1.417-.282 2.114-.007.052-.035.119-.076.147-.775.543-1.13 1.409-1.636 2.16z"/><path d="M25.425 18.493c-.417-.093-.765.109-.895.546-.149.503-.312.948-.871 1.188a.669.669 0 0 0-.263.209c-.018-.236-.115-.491-.094-.709.004-.047-.318-.124-.462-.178l.12 1.499a.746.746 0 0 0 .286-.176.999.999 0 0 0 .124.601c.231.385.681.525 1.041.272.854-.597 1.354-1.436 1.565-2.367.044-.482-.179-.801-.551-.885zM13.72 28.936c-.343-.161-.715-.045-.937.296a2.335 2.335 0 0 1-.236.318l.131-.558c-.438.188-.63.396-.699.613-.072-.028-.136-.052-.231-.097-.354-.169-.751-.07-.958.237-.212.313-.184.739.138.97.307.219.671.359 1.011.533.951.011 1.871-.535 2.156-1.328.151-.417.003-.805-.375-.984zm6.059-4.884c-.279-.014-.549.137-.671.469-.147.406-.458.616-.824.771-.172.074-.364.105-.527.192-.324.174-.487.446-.394.823.091.37.339.566.716.572.926.014 2.196-.98 2.423-1.889.116-.458-.183-.889-.723-.938zm9.65-14.119c.026.271-.013.547-.012.821.001.425.272.733.668.77.376.036.69-.197.786-.592.031-.125.042-.256.063-.384l.042-.007c-.06-.485-.052-.992-.202-1.447-.105-.323-.377-.641-.658-.847-.331-.242-.815-.084-1.037.231-.228.326-.165.663.147 1.011a.825.825 0 0 1 .203.444zm-.231 4.442c-.371.087-.611.437-.529.863.071.376-.035.556-.416.645a.702.702 0 0 0-.539.854c.09.406.439.641.872.585.849-.111 1.548-.862 1.619-1.855-.02-.103-.039-.334-.107-.55-.139-.437-.494-.639-.9-.542zm-5.825-5.774c.079-.033.263-.078.409-.177.427-.285.833-.598 1.256-.887.313-.212.442-.565.31-.903-.132-.334-.495-.555-.837-.454-.756.223-1.386.655-1.828 1.31-.315.464.021 1.065.69 1.111zM23.79 23.2c-.313-.13-.678-.088-.811.202-.229.496-.619.795-1.01 1.128-.255.218-.27.539-.105.834.163.291.422.437.761.382.26-.042.521-.179.76-.366l.562.36c-.548-.509.3-.654.282-.843l-.339-.049c.198-.284.335-.604.364-.913.005-.327-.134-.599-.464-.735zm-6.177 5.47c-.366-.22-.735-.1-1.047.287-.093.116-.295.14-.438.222-.249.143-.581.244-.705.461-.102.178-.028.555.108.742.15.207.46.299.608.387.867-.01 1.338-.421 1.687-1.01.257-.432.164-.863-.213-1.089zm-6.967 3.575c-.202-.107-.529-.091-.76-.011-.386.134-.739.363-1.107.55-.319.162-.476.424-.429.773s.261.57.619.625c.537.082 1.722-.534 1.957-1.015.037-.076.058-.161.124-.353-.108-.16-.204-.46-.404-.569z"/>
    </symbol>
     <symbol viewBox="0 0 40.189 43.416"  id="sauce">
      <path d="M15.407 6.22c.04.091.187.22.244.201.109-.033.259-.151.271-.249.099-.81-.205-1.502-.67-2.23-.123.478-.505.797-.236 1.281.17.308.248.67.391.997zm8.471 3.429l.39-1.024c-.261-.056-.261-.056-.287-.978-.316-.105-.64-.151-.56.332.096.571-.117.839-.697.927l.963.434.191.309zm3.399 7.086l1.319.265-.196-.428.565-.324c-1.171-.367-1.43-.281-1.688.487zm-.336-9.105a.253.253 0 0 0 .18-.079c.217-.244.07-1.121-.178-1.352-.125-.116-.189-.313-.242-.484-.037-.122-.008-.264-.008-.396l-.193.005v1.349c.084.231.189.542.308.846.018.049.086.108.133.111zm.189.725c-.517.164-.307-.422-.432-.479-.27.35-.506.659-.743.968.015.036.03.073.046.107.376-.197.752-.396 1.129-.596zm-3.066 3.097l-.066-.205c-.462.135-.924.268-1.385.401l.085.254c.456-.15.911-.299 1.366-.45zm-4.093 1.472l.023-.21-1.132-.072-.021.198c.355.21.747.109 1.13.084zM9.639 23.044l.011.153.811.536c-.031-.32-.009-.66-.074-.678-.234-.062-.497-.016-.748-.011zm1.421.126c.355.21.748.109 1.13.084l.023-.21-1.132-.072-.021.198zM.862 29.643c-.329.14-.586.449-.862.674.323.133.646.355.981.376.277.018.627-.144.829-.344.11-.109.047-.631-.058-.673-.264-.107-.636-.143-.89-.033zm2.412 5.126l1.881 2.024.201-.199-1.811-2.083-.271.258zm9.741 8.647l1.949-.178-1.129-1.029c-.215.315-.415.609-.82 1.207zm2.23-21.292l1.039-.342-.067-.205c-.338.099-.677.196-1.015.294l-.695-3.999a1.494 1.494 0 0 0-.598-.956c.22-.03.465 0 .746.124.057-.205.196-.429.142-.584-.068-.193-.282-.347-.457-.49-.121-.099-.279-.149-.421-.223l-.06.129.45.548c-.352.435-.91-.16-1.158.22a1.422 1.422 0 0 0-.379.012 1.5 1.5 0 0 0-1.221 1.734l2.526 14.533a1.5 1.5 0 0 0 2.956-.513l-1.788-10.282zm16.451 12.71c-.143.109.253 1.356.429 1.363.635.028 1.281-.254 2.143-.475l-.492-1.925c-.708.327-1.477.573-2.08 1.037z"/><path d="M39.365 6.225c.095-.47.205-.937.316-1.403.183-.768.372-1.561.488-2.359.071-.479-.048-1.523-.526-1.811l-.085-.043c-.586-.234-1.461.01-1.936.368-.845.64-1.654 1.345-2.438 2.026-.411.358-.822.717-1.239 1.066a1.778 1.778 0 0 1-.38.258c-1.369-.553-1.945.453-2.385 1.221l-.186.332c-.252.451-.49.877-.788 1.254-.143.182-.432.346-.618.355-1.404.061-2.48.693-3.195 1.881l-3.558 5.909c-.472.783-.942 1.566-1.413 2.35-.078.024-.145.052-.172.1a.647.647 0 0 0-.056.279c-.572.951-1.144 1.901-1.715 2.853l.732 4.373 1.84-3.059.908-1.51.335.493.15-.101-.38-.567.361-.599 1.406-2.338.344-.57c.069.414.385.465.709.505a9.86 9.86 0 0 1 .104-.115l-.674-.62 1.084-1.798.028.069c.011-.057.009-.092.017-.144.752-1.251 1.504-2.502 2.26-3.751.52-.859.709-.908 1.559-.402l.406.243.957-1.977.402 2.79.641.383c.781.47 1.561.941 2.339 1.416.827.505.874.71.355 1.572-.958 1.595-1.919 3.188-2.878 4.781l-.025 1.419a4.846 4.846 0 0 1-.611-.361c-2.326 3.866-4.651 7.733-6.98 11.599-.55.912-.733.959-1.637.421-.625-.373-1.248-.752-1.872-1.127l-.799-4.608.256.052-.196-.428c.191-.11.339-.196.565-.324a4.749 4.749 0 0 0-.78-.192.532.532 0 0 0-.007-.039l-.526-3.025c-.162-.93-.319-1.86-.477-2.791-.095-.564-.197-1.142-.294-1.713l.25-.132c-.134.043-.218.033-.273-.003-.074-.436-.147-.867-.224-1.305.054.151.112.311.174.471.019.05.087.108.134.111a.255.255 0 0 0 .18-.079c.216-.244.069-1.121-.178-1.352-.125-.116-.19-.313-.243-.484-.037-.122-.007-.264-.007-.396l-.194.006v.964a145.764 145.764 0 0 0-.63-3.316l.153.102c-.031-.32-.009-.66-.074-.678-.067-.018-.14-.015-.211-.018-.204-.711-.646-1.623-1.282-2.042.033-.115.062-.232.119-.322.019-.028-.163-.186-.238-.269l-.178.426c-1.028-.455-1.14-1.187-1.294-2.249l-.038-.284c-.042-.35-.087-.709-.223-1.053-.131-.331-.49-1.101-.995-1.1-.65.002-.853-.354-1.154-.984a6.844 6.844 0 0 0-.216-.428 43.903 43.903 0 0 1-.679-1.268c-.364-.699-.742-1.424-1.176-2.104C10.344.624 9.57-.087 9.02.009l-.093.023c-.595.207-1.098.963-1.222 1.546-.219 1.036-.37 2.099-.515 3.127-.076.54-.152 1.08-.238 1.618a1.828 1.828 0 0 1-.119.444C5.437 7.244 5.66 8.384 5.83 9.251l.076.373c.104.506.203.983.226 1.463.011.23-.1.545-.235.674-1.022.966-1.42 2.148-1.183 3.515l.003.018 2.748 3.615-.803 1.081c-.4-.366-.771-.771-1.205-1.091-.052-.038-.087-.086-.136-.126l.573 3.299.749 4.297c-.029-.023-.058-.05-.085-.072-.121-.099-.279-.149-.421-.223l-.06.129.45.548c-.395.487-1.053-.33-1.237.4-.101.399-.769.645-.183 1.267l-.604-.232-.07.145c.18.078.366.147.537.242a.566.566 0 0 1 .227.228c.019.039-.08.135-.125.206-.043.07-.132.146-.122.208.054.324-.13.381-.39.403-.193.015-.383.071-.574.11l.027.141h1.503c-.025-.233-.051-.413-.062-.595a57.04 57.04 0 0 1-.056-1.168c-.005-.125-.042-.279.014-.37.307-.497.781-.635 1.402-.382.5 2.873.997 5.746 1.501 8.619.393 2.233 2.115 3.433 4.387 3.057a362.73 362.73 0 0 0 2.571-.438c.995-.173 1.989-.35 2.982-.525l.124-.021c1.011-.18 1.79-.576 2.345-1.14l-.143-.751.371-.174c.066.13.131.261.195.392.4-.638.592-1.422.531-2.343l.262 1.564a4.9 4.9 0 0 0 1.363.528c.042-.133.078-.253.134-.403.073.165.144.319.208.466 1.438.188 2.718-.494 3.649-2.036a3114.77 3114.77 0 0 0 3.518-5.84c-.247-.19-.5-.371-.742-.567-.2-.163-.094-.707-.13-1.075.643-.031 1.293-.123 1.928-.112l.708-1.176c.486-.81.978-1.616 1.468-2.423 1.299-2.135 2.643-4.344 3.889-6.563.4-.715.845-2.088.422-2.936-.523-1.052-.119-1.683.471-2.604l.158-.24c.195-.291.398-.593.521-.941.117-.336.35-1.152-.033-1.482-.492-.424-.412-.826-.227-1.5a5.89 5.89 0 0 0 .12-.465zM22.253 21.327c-.174-.167-.514-.361-.49-.495.056-.332.277-.637.547-1.188.049.071.097.132.144.193a.915.915 0 0 1-.036.029l.395.582c-.12.317-.364.589-.56.879zM12.177 8.852l.221 1.271-3.321.577-.221-1.271 3.321-.577zM9.399 2.726l2.117 3.242-3.015.523.898-3.765zm8.407 32.489c-1.782.317-3.565.628-5.352.931-1.03.174-1.17.07-1.358-1.002-.307-1.752-.611-3.505-.915-5.257-.208.055-.436.114-.708.188.188-.518.344-.966.499-1.39l-.155-.89-.456-2.625-.468-2.689-.197-1.135c.2-.144.189-.476.316-.673.019-.028-.163-.186-.238-.269a42.63 42.63 0 0 0-.17.407c-.237-1.359-.472-2.719-.707-4.078.105-.042.232-.143.243-.232.092-.755-.173-1.408-.585-2.084.033-.406.286-.528.973-.651a489.182 489.182 0 0 1 5.456-.947c.956-.161 1.125-.037 1.299.955.241 1.384.48 2.768.722 4.152-.237-.047-.427.002-.363.383.096.571-.117.839-.697.927l.962.434.191.31.181-.476 1.329 7.648a58.381 58.381 0 0 1-.22-.203c-.055.5.098.694.321.784.353 2.031.708 4.062 1.059 6.092.18 1.049.073 1.205-.962 1.39zm17.768-24.706L32.685 8.77l.666-1.105 2.889 1.739-.666 1.105zm2.053-3.719l-2.622-1.578 3.146-2.258-.524 3.836z"/><path d="M22.427 30.894a1.499 1.499 0 0 0 2.058-.512l7.606-12.637a1.499 1.499 0 0 0-.512-2.059 1.499 1.499 0 0 0-2.058.512l-7.606 12.637a1.5 1.5 0 0 0 .512 2.059z"/>
    </symbol>
     <symbol viewBox="0 0 38 38.638"  id="salad">
      <path d="M11.954 35.416l-.292-.355.039-.084c.092.048.195.081.273.146.113.093.252.192.296.317.035.102-.055.246-.092.379-.422-.187-.742-.097-.947.236-.037.06-.013.16-.009.24.01.253.021.506.036.759.007.117.024.233.04.386h-.976l-.018-.092c.124-.025.248-.061.373-.071.168-.015.288-.052.252-.263-.006-.039.051-.089.08-.134.029-.046.093-.108.081-.134a.367.367 0 0 0-.147-.148c-.111-.061-.231-.105-.349-.156l.046-.094.392.15c-.38-.403.054-.563.12-.822.119-.474.545.056.802-.26zm6.106.23c-.368.283-.582.573-.418 1.026.068.188-.129.338-.336.275-.111-.034-.22-.073-.381-.128l.128.403c-.087-.053-.143-.067-.147-.093-.056-.281-.15-.523-.489-.557.012-.104-.003-.224.043-.309.032-.059.15-.068.25-.107l.121.137c.243.274.477.244.625-.086a3.07 3.07 0 0 0 .167-.439c.071-.268.21-.278.437-.122zm.172-5.924c.017.598.017.598.186.635l-.253.665a21.846 21.846 0 0 1-.124-.201l-.625-.282c.376-.056.514-.229.453-.6-.053-.314.157-.285.363-.217zm-3.725 3.736c-.249-.164-.387-.257-.526-.349l-.007-.099c.163-.004.334-.033.485.007.041.012.028.233.048.441zm2.836-1.139l.899-.26.044.133-.888.292a15.943 15.943 0 0 0-.055-.165zm-2.434.645l.735.046-.015.136c-.249.018-.503.084-.734-.054l.014-.128zm-1.77-1.013l.273-.652c.049.054.167.156.155.174-.114.177-.054.527-.428.478zm4.174 5.624l.57.851-.098.066c-.189-.279-.378-.561-.568-.84l.096-.077zm14.556-6.417l.102.076c.127-.145.245-.298.346-.467-.039.021-.078.05-.116.061l-.332.33zM8.549 13.722c.394.195.844-.044 1.04-.46.163-.346.373-.668.598-.981.022-.125.045-.25.08-.369.128-.436.482-.617.877-.399a5.55 5.55 0 0 1 1.166.888c.431.417.794.903 1.2 1.347.342.375.748.405 1.054.105.288-.284.283-.681-.055-1.031-.683-.705-1.274-1.465-1.341-2.484-.028-.43.004-.891.134-1.299.296-.93 1.189-1.231 1.982-.655.425.309.761.747 1.112 1.151.258-.27.339-.663.245-1.226-.143-.855.425-.782.987-.598.082-.559.365-.93.962-1.169a6.14 6.14 0 0 1 1.071-.321c.585-.12 1.166-.266 1.742-.44l-1.267-1.047c-.04.154-.082.303-.176.657-.226-.417-.362-.68-.508-.938-.167-.296-.312-.616-.519-.878-1.25.264-2.402.748-3.252 1.802-.061.076-.238.105-.348.085-.095-.016-.185-.015-.278-.026.039.031.085.06.122.093.03.027-.12.379-.2.384-.256.017-.52-.057-.821-.103l.085-.402c-1.649.086-2.958 1.058-3.534 2.757-.151.442-.323.65-.826.757-1.43.308-2.107 1.377-2.374 2.724a7.274 7.274 0 0 0-.108.923c.241-.491.585-.902.898-.97l-.902 1.998c.006.125.005.25.017.375.192-.295.798-.417 1.137-.25z"/><path d="M22.9 2.993l-.325-.141c-.155.269-.219.728-.699.435l.228-.791a7.83 7.83 0 0 1-.737.373.77.77 0 0 0-.151.273c-.07.258.174.601.294.95-.468.371-.459-.427-.914-.428.099.458.088.971.318 1.329.183.284.489.487.788.696.145-.048.29-.082.434-.137V3.569l.345-.008c0 .237-.053.489.013.706.094.307.211.658.434.865.014.014.026.037.04.053.03-.016.062-.026.092-.042l-.028.125c.375.54.567 1.877.214 2.276a.466.466 0 0 1-.32.142c-.085-.005-.207-.109-.241-.198l-.041-.111a8.717 8.717 0 0 0-.012 1.371c.059.213.202.369.631.233l-.578.306c.02.142.033.284.058.425.077.44.377.668.785.609.391-.056.649-.405.558-.824-.314-1.449.213-2.571 1.33-3.456.882-.699 1.791-1.367 2.948-1.538.958-.142 1.534.333 1.533 1.305-.001.461-.116.923-.184 1.383-.021.146-.066.288-.085.433-.058.408.159.732.533.812.347.073.67-.139.79-.515.028-.091.054-.183.08-.275a9.075 9.075 0 0 1-1.191-.131c.411 0 .821.008 1.232.011.023-.072.045-.145.076-.212.476-1.039 1.554-1.282 2.351-.467.146.15.268.329.395.501.231-.028.469-.057.687-.081a3076.59 3076.59 0 0 1-.639-3.352 4.627 4.627 0 0 0-1.749-.288c-.1.001-.24-.095-.3-.186-.882-1.339-2.163-1.833-3.696-1.665-.73.08-1.441.33-2.183.507-.022-.078-.053-.205-.094-.33-.313-.962-1.472-1.329-2.196-.632-.017.015-.035.026-.051.042l-.24.657c-.968-.06-.196.692-.533.973z"/><path d="M37.321 13.829c-.116-.188-.125-.307-.003-.494a4.2 4.2 0 0 0 .681-2.393c-.017-1.192-.313-2.293-.782-3.332l-1.748.138.49.88c-.662-.208-1.075-.347-1.488-.468.08.122.156.241.242.362-.448.19-.806.301-1.123.483a56.143 56.143 0 0 0-2.568 1.545c-.448.29-.51.724-.232 1.061.256.312.666.32 1.066.011a11.219 11.219 0 0 1 3.185-1.733c.526.926.204 2.042-.699 2.483-.517.253-.786.675-.78 1.251.008.594.307 1.001.844 1.252.202.095.389.224.584.337l-.058.153c-.905-.122-1.812-.244-2.719-.368-.131-.018-.262-.051-.394-.068-.417-.055-.744.163-.809.531-.066.388.131.718.551.794.801.146 1.609.25 2.415.372l.198.027c-.771.827-.768 1.094-.375 2.16.277.755.398 1.568.584 2.357.049.207-.051.307-.254.367-.985.295-1.932.217-2.831-.28-.468-.259-.915-.552-1.371-.832-.435-.266-.823-.216-1.055.141-.228.352-.113.739.315 1.014.348.225.701.44 1.057.652 1.57.934 1.678 3.008.209 4.085-.107.079-.221.147-.313.21-.708-.537-1.396-1.061-2.087-1.58a2.504 2.504 0 0 0-.407-.256.674.674 0 0 0-.869.229c.613.452 1.016 1.037 1.289 1.712a10.393 10.393 0 0 1 1.754 1.735c-.055-.459-.027-.872.139-1.121l1.385 3.848c-.58-.253-1.074-1.064-1.343-1.9-.021.045-.039.091-.067.133-.105.16-.381.273-.587.285-.285.018-.581-.068-.866-.129-.496-.105-.99-.221-1.482-.342a4.39 4.39 0 0 1-1.834-.945 13.829 13.829 0 0 0-1.168-.912c-.354-.244-.731-.162-.955.152-.232.326-.154.707.199.979.256.195.511.391.767.582.412.307.595.695.586 1.145h2.347c-1.023.586-1.823.691-2.388.313-.007.035-.005.068-.015.105-.166.648-.599 1.052-1.225 1.217.303.139.604.289.858.495.104.085.017.409.017.645-.45-.22-.774-.36-1.08-.533-.135-.077-.33-.231-.32-.334a.5.5 0 0 1 .111-.214c-1.379.094-2.773-1.07-2.874-2.511-.024-.358.004-.721.019-1.081.015-.433-.203-.733-.579-.777-.388-.047-.712.17-.765.593-.061.5-.056 1.01-.081 1.571-1.03-.095-1.844.375-2.471 1.098-.017.018-.035.033-.051.052.194.29.388.581.583.87-.089.061-.179.121-.269.18l-.547-.807c-.838.813-1.847 1.177-3.029 1.229-.907.04-1.813.134-2.719.2-.046.004-.094-.01-.227-.023.502-.516.933-1.004 1.412-1.443.996-.913 1.959-1.866 3.047-2.67-.209-.121-.344-.164-.357-.227-.079-.397-.188-.766-.399-1.043a31.308 31.308 0 0 1-1.953 1.783c-2.34 1.963-4.331 4.287-6.387 6.536-.174.19-.299.259-.528.104-.253-.169-.529-.305-.829-.475.961-.877 1.891-1.732 2.829-2.58 1.498-1.354 2.973-2.734 4.508-4.046a23.567 23.567 0 0 0 1.803-1.723 1.6 1.6 0 0 0-.389-.089c.031-.288-.01-.615.119-.85.088-.159.414-.189.688-.297.1.114.215.247.332.379l.009.01a24.575 24.575 0 0 0 3.753-5.962c.732-1.631 1.487-3.258 2.329-4.834.576-1.079 1.311-2.075 1.997-3.091.296-.439.315-.838-.021-1.098-.317-.246-.729-.155-1.043.229-1.502 1.84-2.532 3.953-3.525 6.087-.394.848-.792 1.693-1.189 2.54-.056.116-.122.227-.216.4-.233-1.224-.64-2.301-1.307-3.272-.083-.121-.166-.244-.259-.357-.274-.337-.682-.41-.989-.186-.32.235-.365.625-.113.995.112.167.238.324.343.494.703 1.141 1.12 2.366 1.02 3.723-.077 1.036-.51 1.948-1.186 2.708a45.823 45.823 0 0 1-2.756 2.854c-1.916 1.805-3.874 3.566-5.817 5.348-.175-.107-.328-.211-.49-.299-.313-.173-.421-.436-.353-.774.073-.358.326-.378.639-.361.952.05 1.629-.755 1.431-1.672-.086-.399.011-.51.428-.481.146.008.295.039.438.022.827-.097 1.362-.86 1.183-1.677-.02-.09-.036-.181-.057-.287.333-.033.65-.07.969-.092.73-.053 1.219-.401 1.391-1.005.176-.62-.042-1.147-.65-1.578-1.014-.718-1.142-2.06-.275-2.881.691-.657 1.896-.58 2.499.159.288.354.657.422.981.184.301-.223.363-.605.141-.966a4.455 4.455 0 0 0-.378-.518c-1.713-2.034-2.433-4.422-2.558-7.017-.115.204-.286.368-.606.664-.497.461-1.491.78-1.838.588l-.234.003c.076.583.183 1.165.322 1.742.025.104.061.206.088.31l.608-.371c.152.15.238.352.272.575l1.761.113-.041.375c-.582.039-1.175.173-1.73-.02a1.677 1.677 0 0 1-.165.458l-.425-.151c.122.385.248.77.366 1.158-2.057 1.356-2.833 3.206-2.094 5.648-.83.065-1.169.639-1.406 1.313-.053.15-.116.308-.12.464-.006.337-.198.481-.485.587-.602.221-.958.635-1.038 1.298-.023.192-.169.451-.332.532-.923.452-1.437 1.221-1.727 2.156-.283.914-.101 1.794.345 2.651l-.963.735c-1.004.764-.933 1.871.166 2.49 1.07.604 2.146 1.199 3.219 1.795 1.009.561 1.469.537 2.356-.215a8.084 8.084 0 0 0 1.07-1.133c.816-1.02 1.819-1.67 3.155-1.751a92.852 92.852 0 0 0 2.837-.219c1.621-.147 3.077-.67 4.194-1.919.179-.199.334-.42.5-.631l.179.003c.081.124.135.286.247.367.625.452 1.219.978 1.905 1.308 2.676 1.283 5.321.148 6.37-1.912.044-.086.255-.146.372-.127.474.08.936.22 1.41.293 1.263.199 2.363-.166 3.11-.893a8.661 8.661 0 0 1-.309-.617c-.222-.505.346-1.371.921-1.557a.96.96 0 0 0 .393-.24 4.291 4.291 0 0 0-.039-.735.677.677 0 0 1 .156-.474c.041-.045.075-.094.114-.139-.251-.739-.386-1.516-.462-2.3.588.853.84 1.229.941 1.645.24-.388.428-.802.526-1.259.097-.452.11-.922.163-1.413.078-.019.185-.032.281-.072.649-.269 1.314-.51 1.941-.823.459-.231.659-.672.688-1.193.063-1.185-.028-2.352-.405-3.482-.077-.23-.008-.357.146-.517 1.2-1.249 1.379-2.927.464-4.413zM36.016 5.54a5.059 5.059 0 0 0-1.168-1.144c.011.199.037.389.125.546.162.29.614.42 1.043.598zm-1.163.596c.577.386 1.094.942 1.708 1.085.159.038.324.051.493.05a13.36 13.36 0 0 0-.783-1.377c-.017-.026-.036-.049-.054-.075-.206.557-.92-.111-1.364.317z"/><path d="M26.354 14.139c1.049-.661 1.922-1.513 2.691-2.466.037-.542.277-.893.731-1.041a.648.648 0 0 0-.239-.767c-.318-.23-.721-.174-.979.202-.992 1.453-2.313 2.54-3.766 3.497-2.041 1.345-3.647 3.124-5.002 5.14-.507.753-1.026 1.502-1.487 2.285a30.105 30.105 0 0 1-1.856 2.748c.192-.025.428.07.718.271-1.012.777-1.6 1.574-1.15 2.82a.556.556 0 0 1 .013.363c.261-.214.506-.455.749-.688.909-.869 1.915-1.523 3.023-1.953-.061-.205-.082-.471-.043-.822l.662.61a8.88 8.88 0 0 1 1.814-.35c.17-.015.355-.034.503-.109.315-.159.411-.444.331-.78a.648.648 0 0 0-.773-.484c-.967.182-1.927.407-2.888.62-.113.024-.218.081-.384.044.428-.346.837-.717 1.287-1.031 1.196-.838 2.566-1.299 3.938-1.752 1.482-.49 2.97-.968 4.453-1.454.51-.167.719-.52.564-.929-.148-.39-.49-.541-.96-.377-2.058.716-4.176 1.269-6.201 2.076.012.284-.019.634-.103 1.071-.119-.293-.236-.587-.361-.877-.467.197-.93.404-1.383.637-.008.004-.023-.005-.074-.018.052-.091.096-.177.146-.259.277-.451.572-.884.876-1.308a3.766 3.766 0 0 0-.052-.111c.051-.009.093-.007.14-.01 1.38-1.895 3.034-3.522 5.062-4.798zM14.042 27.236l.336 1.057a11.86 11.86 0 0 1 1.036-.673.895.895 0 0 1-.325-.032c-.304-.092-.602-.202-1.047-.352zm4.463-16.304c.299-.299.277-.694-.095-1.056a3.43 3.43 0 0 1-.291-.331l-.534 1.4c.309.242.668.24.92-.013zm-.831-2.268c.037.616.112.707.363.771a2.382 2.382 0 0 1-.363-.771zm-1.723 15.711a29.63 29.63 0 0 1-1.599 1.854c.451.19.859-.029 1.149-.674.173-.386.338-.776.45-1.18zm5.889-18.23l.164-.233a5.382 5.382 0 0 0-.303-.223c-.1.033-.199.064-.299.094l.438.362zm-3.148-3.038c-.41-.357-.786-.753-1.177-1.132.397.564.909 1.013 1.361 1.516.022.025.036.059.057.085.09-.019.18-.039.27-.055-.171-.134-.344-.269-.511-.414zM6.866 9.071c-.165.156-.228.419-.337.635l.624-.013.076 1.553c.556-.856.875-1.729.496-2.755-.297.194-.614.349-.859.58zm1.598 7.914c.094.056.19.097.288.13.034-.164.032-.319.009-.468l-.26-.017-.037.355zm-1.497.014l1.195.423a20.983 20.983 0 0 1-.281-.979l-.914.556zm-1.07 1.335c.574-.12 1.148-.24 1.722-.358l-.02-.197c-.365-.102-.725-.262-1.095-.294-.578-.048-.82.313-.607.849zm9.167-14.607c.431.631.927.024 1.44.14-.506-.614-.984-.642-1.44-.14zm-9.588 7.858l-1.324-1.283c-.071.615.383 1.044 1.324 1.283zm-2.911-1.027c-.053.045-.031.211-.002.313.066.228.158.448.273.767.111-.114.307-.23.295-.321-.034-.275-.138-.544-.245-.803-.012-.03-.247-.018-.321.044zM17.577 0l-.775.161.826.666L17.577 0z"/>
    </symbol>
     <symbol viewBox="0 0 48 30.317"  id="buns">
       <path d="M20.475 5.926l.494.482c.582.569 1.246.883 1.869.883a1.63 1.63 0 0 0 1.36-.702c.25-.359.204-.811.155-1.048-.075-.361-.247-.635-.498-.79-.427-.265-.852-.399-1.263-.399-.448 0-1.089.167-1.652.916.185-.029.37-.062.552-.079l.042.273-.78.062-.279.402zm-7.481 3.139l-.699-.837-.605.908c-.037.054-.087.112-.136.171-.243.292-.61.734-.387 1.289.173.429.431.801.659 1.129.079.114.158.227.233.342l.342.448 1.325-.239.16-.444c.019-.052.049-.109.078-.167.142-.29.381-.774.1-1.253-.23-.394-.516-.716-.792-1.028a11.97 11.97 0 0 1-.278-.319zm18.189 1.217l2.492-2.583-.654-.563c-.055-.048-.119-.113-.184-.176-.295-.291-.55-.541-.949-.541l-.238.003-.191.113c-.535.314-.982.715-1.385 1.099-.557.527-.113 1.083.21 1.488.097.122.21.263.323.41l.576.75zM16.737 8.547c.315 0 .521-.147.861-.392.122-.087.269-.193.436-.302l.986-.647-1.403-1.027a19.486 19.486 0 0 0-.838-.599 7.096 7.096 0 0 1-1.084-.101c.311 0 .622.004.933.005-.068-.042-.135-.085-.205-.126l-.2-.113h-.219c-.404 0-.64.251-.913.543-.055.058-.109.118-.155.162l-.606.575.866.875c.076.078.157.157.235.236.182-.143.458-.196.838-.154-.206.125-.301.359-.419.557.116.107.229.216.353.318l.242.19h.292z"></path>
       <path d="M6.683 12.869c-.062.327-.124.659-.197.995l-.35 1.597h4.374l.22.533.102-.533H28.01a1.053 1.053 0 0 0-.151.44c.08.081.159.162.238.246l.512-.686h15.08l-.114-1.772a9.156 9.156 0 0 0-.054-.694c-.437-3.416-2.178-6.204-5.325-8.523-3.564-2.625-8.234-4.07-13.149-4.07-1.776 0-3.563.2-5.313.594l-.582.157.113.256a.8.8 0 0 0-.159.505c.01.18.083.318.174.425l-.053.021.108.43c.018.069.042.141.068.213l.019.054-.186-.35-.25.065c.009.197-.011.41-.005.609.154-.045.313-.08.47-.119l.007.506.608-.145a21.647 21.647 0 0 1 6.481-.54l-.813.767 1.225 1.255c.315.33.643.671 1.038 1l.382.3h.466c.463 0 .771-.212 1.154-.474.115-.079.252-.172.406-.269l1.632-1.016-1.057-.791c2.099.605 4.022 1.534 5.653 2.735.16.118.304.24.454.36-.555.152-1.062.897-1.065.905l-.234.448.268.407c.268.403.568.764.859 1.113l.741.899.048-.039c-.192-.484-.326-1.001-.691-1.389-.103-.11-.038-.377-.051-.571l.197-.051 1.15 1.514 1.051-.864a8.899 8.899 0 0 1 1.47 3.506h-5.209c.072-.056.143-.112.208-.166.076-.062.151-.126.227-.176l.931-.611-2.454-1.999-2.379 2.061.992.573c.089.052.178.116.268.179.063.045.133.092.203.139h-7.494l1.725-2.227-1.203-1.258a1.215 1.215 0 0 1-.061.294c-.059.187.255.502.415.746.089.137.216.249.419.477-.878-.263-.936-.307-1.246-.976-.193-.416-.376-.838-.562-1.258l-.422.644c-.051.078-.117.156-.182.234-.246.301-.583.713-.545 1.253.037.516.355.891.612 1.192.069.083.142.164.198.247l.441.633H18.77l.864-.85c.323-.313.658-.637.963-1.005.428-.517.068-1.023-.194-1.393-.088-.125-.195-.274-.306-.445l-.644-.993-.699.955-.343.463c-.327.437-.584.783-.811 1.176-.343.596.133 1.057.418 1.332.057.055.114.109.156.156l.552.604h-9.36c.103-.527.214-1.026.374-1.48.704-1.993 2.073-3.627 4.309-5.145.655-.444 1.36-.847 2.111-1.207l.01-.001-.003-.003a19.35 19.35 0 0 1 2.453-.968l.422-.135-.495-2.6-.534.166c-2.018.624-3.849 1.488-5.442 2.57a17.624 17.624 0 0 0-1.994 1.572l-.202.253.055.276c.004.059.012.114.021.166l-.311-.274c-1.189 1.183-2.044 2.46-2.634 3.869l-1.423.409.1.299 1.19-.392c-.035.091-.081.177-.113.27-.277.786-.427 1.589-.577 2.395zm18.633-.945c.099-.485 1.085-1.1 1.519-.943.096.034.176.342.133.485-.154.505-.691.831-1.484.875-.046-.105-.196-.279-.168-.417z"></path>
       <path d="M18.757 1.756l-.009.003.002.004zm25.115 27.825l.463.736c.242-.171.476-.297.643-.482.053-.059-.082-.405-.12-.404-.293.013-.584.079-.986.15zm.786-9.351c-.769-.087-1.122.218-1.101.876.728.15.665-.609 1.101-.876zm-10.184 2.815c.032.1.066.199.099.298l1.603-.528-.08-.237c-.542.154-1.083.311-1.622.467zm1.479-5.722c-.173.074-.309.236-.454.356.17.069.34.187.517.198a.637.637 0 0 0 .437-.182c.059-.059.025-.332-.03-.355-.14-.056-.336-.075-.47-.017zm-8.577 3.881l-.493 1.176c.676.088.566-.543.772-.861.022-.036-.191-.219-.279-.315zm2.183-10.63c.022.192.144.394.276.545.07.08.254.059.387.083.014-.162.013-.326.045-.483.047-.224.117-.442.184-.68h-.711c-.073.195-.2.374-.181.535zm-2.162-2.418l.392-1.692c-.593.261-.815 1.045-.392 1.692zm-11.451 2.273c.242-.172.476-.297.643-.483.053-.059-.082-.406-.12-.404-.292.013-.583.08-.985.15l.462.737zm13.143-1.602c-.488-.455-.678-.467-1.246-.099l.268.51.978-.411zM0 11.548l.013.178c.25.167.501.332.95.629-.035-.377-.011-.775-.087-.794-.274-.074-.582-.019-.876-.013zm9.129 4.622a2.18 2.18 0 0 1-.051-.047c-.002.018 0 .031-.002.047h.053zm-7.464-4.476c.416.248.875.128 1.324.099l.027-.247c-.442-.029-.885-.056-1.327-.084l-.024.232zm27.026 6.232v-1.268c-.078.003-.156.006-.235.011l.094 1.285.141-.028zM9.933 1.098L8.978 0l-.143.136.992 1.067.106-.105zm36.638 3.344v.676l1.326.282.103-.31-1.429-.648z"></path>
       <path d="M43.439 19.361l-.075-1.169h-1.171c-.299 0-.599.01-.973.021-.601.019-1.198.024-1.649-.029a12.298 12.298 0 0 0-1.469-.093c-.421 0-.82.033-1.207.086h-7.406a9.105 9.105 0 0 0-.397-.009l-1.567.009h-.071l-1.64.01v.002h-.35c-1.891.008-3.956.011-6.364.011l-12.334-.008-.051 1.195c-.108 2.549.884 5.131 2.723 7.084 1.844 1.958 4.374 3.107 6.941 3.152a527.698 527.698 0 0 0 17.227.025c2.682-.04 5.315-1.249 7.225-3.316 1.311-1.418 2.185-3.176 2.492-4.994l.043.039.082-1.008-.013.001a7.93 7.93 0 0 0 .004-1.009zm-17.408-.593c.062.164.095.317.126.472a3.532 3.532 0 0 0-.209-.471.402.402 0 0 1-.051-.169l-.01-.219.144.387zm12.966 5.87c-1.447 1.567-3.426 2.483-5.429 2.514-5.604.085-11.427.077-17.145-.025-1.899-.034-3.783-.896-5.167-2.367-1.085-1.153-1.781-2.583-1.987-4.069l9.831.006c2.408 0 4.464-.004 6.353-.012v.002l.477-.003.176-.001.959.006-.01-.012 2.107-.012c.25 0 .469.02.773.07h6.76l.095-.011c.641-.144 1.363-.166 2.197-.087l.631.056c.381.028.824.038 1.285.027-.189 1.405-.856 2.78-1.906 3.918z"></path>
    </symbol>
     <symbol viewBox="0 0 44 39.212"  id="beef">
      <path d="M40.158 13.595c-.365-.693-.732-1.389-1.098-2.089 1.488-1.032 2.652-2.173 3.48-3.356-.433-.464-.864-.93-1.296-1.394l.212-.202 1.216 1.399c1.569-2.361 1.788-4.88.437-7.056l-.281-.451-.873.918c-.351.37-.687.726-1.032 1.072-.261.26-.522.504-.784.74-.006.053-.018.097-.041.119a.99.99 0 0 1-.342.211c-3.408 2.896-7.048 3.787-11.621 2.893-1.215-.237-2.563-.353-4.123-.353-1.438 0-2.914.096-4.341.189-1.389.09-2.825.184-4.216.188-.358 0-.723.011-1.089.02.013.042.031.082.043.124.044.155-.03.438-.148.519-.115.078-.417.038-.532-.066a2.444 2.444 0 0 1-.468-.557c-.076 0-.152.004-.228.004-.968 0-2.089-.051-3.072-.435-.933-.364-1.826-.877-2.698-1.436a1.02 1.02 0 0 0 .212-.375c.046-.148-.038-.471-.137-.507-.242-.086-.644.057-.985.284a122.28 122.28 0 0 1-.84-.577c-.438-.304-.88-.6-1.322-.895a.943.943 0 0 1-.402.256c-.307.095-.62.171-1.09.298.172-.476.311-.88.453-1.262-.23-.165-.477-.349-.767-.565-.306-.228-.657-.49-1.081-.799L.682 0 .651.77C.453 5.66 2.096 9.035 5.814 11.351c-.349.453-.701.882-1.042 1.299-.914 1.115-1.776 2.168-2.342 3.377C.927 19.237.278 20.868.82 21.944c.498.988 1.82 1.257 4.221 1.744.381.077.792.16 1.23.253 1.222.257 1.723.563 2.107 1.772 1.494 4.707 4.339 8.592 8.457 11.545 1.806 1.296 3.62 1.953 5.392 1.953 1.625 0 3.15-.564 4.542-1.665-.257-.102-.514-.212-.77-.276-.171-.043-.166-.771-.258-1.268.752.161 1.303.28 1.902.407.051.077.107.167.167.26.274-.238.547-.48.818-.725l-.323 1.245c.49-.225 1.039-.475 1.59-.729-.138-.481-.437-.819-.789-.956 2.003-1.851 3.842-3.873 5.003-6.181 1.035-2.056 1.94-3.844 3.43-4.967l.095.029-.056-.06c.937-.694 2.104-1.127 3.679-1.198 1.229-.056 1.798-.595 2.059-1.037.412-.699.358-1.653-.154-2.684a282.635 282.635 0 0 0-3.004-5.811zM3.724 5.456l6.922 3.803c-.125.04-.243.08-.357.118-.64.212-1.106.376-1.496.305-2.445-.436-4.077-1.788-5.069-4.226zm2.39 7.127l.884.806-1.526.139.642-.945zm-2.953 8.232c.678-2.413 1.51-4.372 2.934-5.935-.162.337-.303.646-.08 1.046.21.379.305.82.48 1.221.049.113.228.271.299.249.133-.041.317-.187.332-.306.112-.924-.211-1.724-.715-2.549a9.805 9.805 0 0 1 1.72-1.365l-.43 4.689c.27-.183.66-.253 1.188-.194-.57.348-.567 1.261-1.291 1.326l-.248 2.694-4.189-.876zm4.56.139c.599-.104 1.03-.203 1.464-.223.057-.003.256.514.178.6-.248.276-.596.463-.955.719l-.687-1.096zm20.007 12.871c.107-.262.183-.543.195-.792.052-.977.052-.977-.669-2.022.054.544.146 1.083.322 1.596.151.441-.007.938-.434 1.073-.395.128-.784.721-.632 1.067l.033.063c-.202.158-.399.318-.609.475-1.395 1.038-2.583 1.521-3.738 1.521-1.04 0-2.127-.381-3.468-1.217h-.406l-.047-.244.057-.014c-.041-.026-.079-.049-.121-.077a18.42 18.42 0 0 1-3.252-2.811c.103.035.198.067.293.096.392.118.764-.164.636-.521-.309-.854.095-1.402.79-1.938-.427-.293-.689-.273-.828.232a5.574 5.574 0 0 1-.314.83c-.281.624-.72.681-1.18.164l-.228-.261c-.088.035-.183.058-.265.083a19.505 19.505 0 0 1-3.048-5.826c.405.182.844.089 1.275.061l.028-.258c-.463-.03-.925-.061-1.387-.089a3.355 3.355 0 0 1-.003.031c-1.01-3.261-1.178-6.786-.349-10.179-.78-.028-1.563-.029-2.342-.177.787 0 1.575.033 2.358-.009l.027-.002c.025-.099.041-.199.068-.297.292-1.064.769-2.245 1.539-3.248l-.628-3.297.29-.136c.135.261.256.531.407.782.144.238.318.458.479.685.227-.213.502-.394.667-.647.171-.263.236-.595.394-1.025l.579 1.295c-.397.339-.427.552-.314.718a5.877 5.877 0 0 1 2.006-.653 51.652 51.652 0 0 1 7.094-.499c1.411 0 2.811.063 4.164.185a7.555 7.555 0 0 1 3.028.924c-.034.165.07.344.333.773.104-.195.18-.339.229-.455 1.664 1.153 2.767 3.057 3.199 5.604.168.986.239 1.988.303 2.872.026.365.05.705.077.973.011 5.853-2.158 10.644-6.608 14.591zM33.852 9.41l7.091-3.355c-.688 1.948-2.111 3.153-4.33 3.672l-.395.096c-.438.111-.891.226-1.279.226-.365-.001-.768-.085-1.087-.639zm3.452 12.889l-.148-.443c.804-.231 1.606-.464 2.41-.696.039.119.078.237.119.355l-2.381.784zm-.34-.551l-.854-8.54a8.797 8.797 0 0 1 2.442 2.104c-.039-.662.475-.591.986-.422.047 1.605.047 1.605.5 1.704l-.26.68c.496 1.024.891 2.184 1.254 3.494l-4.068.98z"></path>
      <path d="M19.406 4.425c.239.177.443.399.664.602.168-.227.336-.455.442-.596l-2.377-3.129a15.71 15.71 0 0 1-.207.053c.014.204-.054.483.054.598.671.714.589 1.856 1.424 2.472zm-8.431 30.353c-.079.35-.201.688-.216 1.029-.01.23.13.469.203.702.145-.147.29-.292.446-.452l1.154 1.082c-.2-1.018-.584-1.881-1.587-2.361zM33.199 5.524c-.323-.064-.643-.155-.969-.185-.267-.024-.518.027-.512-.379.006-.405-.244-.428-.568-.32-.555.186-.789.514-.533 1.168.826-.873 1.668.101 2.582-.284zM22.787 9.299c-.089-.125-.319-.184-.492-.201-.069-.007-.187.168-.233.281-.148.363-.273.736-.443 1.207.332-.09.551-.143.767-.21.423-.13.658-.713.401-1.077zm6.408 2.069c-.457.949-.384 1.467.188 1.991.08.073.293.102.374.047.083-.057.136-.256.104-.366-.086-.303-.221-.591-.338-.885-.087-.212-.176-.422-.328-.787zm-.881 26.506c-.457.373-.378.809.156 1.048.336-.492.67-.985 1.004-1.479l-.154-.13c-.338.182-.713.322-1.006.561zm6.492-6.475c.163.148.33.422.488.416.205-.006.403-.232.747-.459-.3-.262-.544-.557-.616-.52-.239.122-.417.366-.619.563zM30.24 5.152l-1.563-1.287c-.029.682.948 1.489 1.563 1.287zm7.374 16.408l.41-1.77c-.62.273-.854 1.093-.41 1.77zM23.386 34.294h-1.873c.384.498 1.017.49 1.873 0zm-3.971-7.686c.106.228.214.451.314.68.094.213.179.433.269.649.199-1.045 0-1.43-.583-1.329zm1.323 8.736c-.03-.013-.193.163-.202.259-.007.072.127.178.22.23.209.119.432.215.741.366 0-.161.061-.384-.011-.443-.22-.176-.486-.3-.748-.412zM8.55 31.523l.127-.14-1.004-.924c-.102.935.384 1.003.877 1.064zm8.845-20.786c.061-.061.026-.347-.032-.371-.146-.059-.35-.079-.491-.02-.181.078-.323.248-.475.373.178.074.356.196.541.208a.672.672 0 0 0 .457-.19zm20.702 18.922l.248.256.73-.977c-.62-.113-.902.124-.978.721zM0 6.143l.669.8c.115-.728-.033-.881-.669-.8zm34.19 25.922l.269.99c.063-.015.127-.031.189-.048.16-.387.057-.717-.458-.942zM19.35 14.179l-.999-1.148-.148.143 1.036 1.116.111-.111zm9.314-8.415c.111-.165.252-.318.315-.499.024-.07-.127-.202-.284-.43-.148.304-.271.472-.301.656-.014.073.174.181.27.273z"></path>
      <ellipse cx="18.219" cy="20.872" rx="2.027" ry="1.834"></ellipse>
      <path d="M29.324 20.224c-.111-.207-.209-.438-.41-.638a2.23 2.23 0 0 0-.678-.565c-.26-.166-.593-.267-.908-.321a2.784 2.784 0 0 0-.945.027c-.288.07-.566.164-.791.301a2.798 2.798 0 0 0-1.012.929c-.227.314-.338.64-.396.868-.042.223-.039.361-.039.361l.345-.111.784-.209c.309-.073.642-.152.951-.187.156-.03.302-.021.438-.036.134.011.258.006.369.033.115.016.223.037.34.08a.808.808 0 0 0 .182.057c.06.035.119.073.187.102.138.047.261.158.398.236.144.072.268.186.399.275.12.099.264.176.367.27.104.09.215.164.303.229.182.126.306.198.306.198s.034-.13.06-.356c.017-.226.054-.558-.051-.932-.049-.189-.08-.405-.199-.611z"></path>
    </symbol>
    
</svg>