<?xml version="1.0" encoding="utf-8"?>
<svg xmlns="http://www.w3.org/2000/svg" xmlns:xlink="http://www.w3.org/1999/xlink">
    <symbol viewBox="0 0 126 72" id="vk">
      <path d="M124.523,64.503c-0.152-0.328-0.293-0.597-0.426-0.816
        c-2.172-3.91-6.324-8.711-12.449-14.401l-0.129-0.134l-0.066-0.063l-0.066-0.066h-0.063c-2.781-2.651-4.543-4.434-5.281-5.344
        c-1.348-1.738-1.652-3.5-0.914-5.281c0.523-1.348,2.477-4.19,5.867-8.538c1.781-2.302,3.195-4.149,4.234-5.539
        c7.52-9.996,10.777-16.383,9.777-19.164l-0.387-0.649c-0.262-0.39-0.934-0.75-2.02-1.074c-1.086-0.327-2.477-0.383-4.172-0.163
        L99.656,3.398c-0.301-0.105-0.738-0.099-1.301,0.034c-0.566,0.13-0.852,0.195-0.852,0.195L97.18,3.793l-0.258,0.195
        c-0.219,0.129-0.457,0.354-0.719,0.683c-0.258,0.325-0.477,0.707-0.648,1.142c-2.047,5.258-4.367,10.145-6.977,14.663
        c-1.609,2.695-3.086,5.031-4.434,7.009c-1.348,1.976-2.477,3.434-3.387,4.366c-0.914,0.935-1.738,1.685-2.477,2.246
        c-0.742,0.567-1.305,0.806-1.695,0.72c-0.391-0.091-0.762-0.177-1.109-0.263c-0.609-0.39-1.098-0.922-1.465-1.597
        c-0.371-0.672-0.621-1.52-0.75-2.543c-0.129-1.021-0.207-1.899-0.23-2.637c-0.02-0.738-0.008-1.785,0.035-3.129
        c0.043-1.349,0.066-2.263,0.066-2.738c0-1.653,0.031-3.446,0.094-5.379c0.066-1.935,0.121-3.465,0.164-4.594
        c0.043-1.13,0.066-2.324,0.066-3.587c0-1.258-0.078-2.245-0.23-2.965c-0.148-0.715-0.379-1.41-0.684-2.086
        c-0.305-0.672-0.75-1.194-1.336-1.562c-0.586-0.371-1.313-0.664-2.18-0.883c-2.305-0.521-5.238-0.802-8.8-0.849
        c-8.082-0.086-13.274,0.438-15.579,1.567c-0.914,0.476-1.738,1.129-2.476,1.953c-0.781,0.957-0.891,1.479-0.328,1.565
        c2.609,0.392,4.453,1.325,5.543,2.802l0.39,0.784c0.305,0.563,0.61,1.563,0.911,2.996c0.304,1.435,0.5,3.021,0.585,4.758
        c0.219,3.173,0.219,5.888,0,8.149c-0.214,2.257-0.421,4.019-0.617,5.277c-0.195,1.262-0.488,2.28-0.879,3.065
        c-0.39,0.782-0.652,1.258-0.785,1.435c-0.129,0.172-0.238,0.28-0.324,0.323c-0.566,0.22-1.152,0.328-1.762,0.328
        c-0.605,0-1.344-0.304-2.215-0.914c-0.867-0.608-1.769-1.444-2.703-2.512c-0.933-1.062-1.988-2.55-3.164-4.464
        c-1.172-1.911-2.386-4.168-3.648-6.778l-1.043-1.89c-0.653-1.215-1.543-2.985-2.672-5.313c-1.129-2.323-2.129-4.569-2.996-6.745
        c-0.348-0.91-0.871-1.605-1.567-2.087l-0.324-0.194c-0.219-0.172-0.566-0.356-1.043-0.556c-0.48-0.194-0.976-0.336-1.5-0.422
        L4.172,3.265c-1.824,0-3.063,0.414-3.715,1.238L0.195,4.895C0.066,5.113,0,5.46,0,5.938c0,0.48,0.129,1.065,0.391,1.762
        C3,13.824,5.832,19.734,8.898,25.425c3.063,5.696,5.723,10.278,7.981,13.754c2.262,3.478,4.562,6.758,6.91,9.84
        c2.348,3.086,3.902,5.063,4.66,5.935c0.762,0.871,1.36,1.519,1.793,1.953l1.629,1.565c1.043,1.043,2.574,2.293,4.598,3.746
        c2.02,1.457,4.258,2.891,6.711,4.305c2.457,1.41,5.312,2.563,8.574,3.453c3.258,0.892,6.43,1.25,9.516,1.074h7.496
        c1.52-0.129,2.672-0.609,3.453-1.433l0.258-0.324c0.176-0.262,0.34-0.665,0.488-1.208c0.152-0.542,0.23-1.14,0.23-1.792
        c-0.043-1.868,0.098-3.551,0.422-5.051c0.324-1.496,0.695-2.625,1.109-3.388c0.414-0.762,0.879-1.401,1.402-1.922
        c0.52-0.522,0.891-0.836,1.109-0.944c0.215-0.11,0.387-0.185,0.52-0.231c1.043-0.347,2.27-0.007,3.684,1.012
        c1.41,1.024,2.734,2.281,3.977,3.781c1.238,1.5,2.727,3.184,4.461,5.051c1.742,1.867,3.262,3.258,4.563,4.172l1.305,0.781
        c0.871,0.524,2,1,3.391,1.435c1.391,0.437,2.605,0.547,3.648,0.327l16.688-0.262c1.648,0,2.934-0.272,3.844-0.815
        c0.914-0.544,1.453-1.142,1.629-1.789c0.176-0.653,0.184-1.392,0.035-2.22C124.824,65.406,124.672,64.828,124.523,64.503
        L124.523,64.503z M124.523,64.503"/>
    </symbol>
    <symbol  viewBox="0 0 36.711 36.711" id="fb">
        <path d="M36.711,34.686c0,1.119-0.907,2.025-2.026,2.025H25.33V22.495h4.771l0.715-5.541H25.33v-3.537
        c0-1.604,0.445-2.696,2.746-2.696l2.934-0.001V5.764c-0.508-0.067-2.249-0.219-4.275-0.219c-4.23,0-7.127,2.582-7.127,7.323v4.086
        h-4.784v5.541h4.784v14.216H2.026C0.907,36.711,0,35.805,0,34.686V2.026C0,0.907,0.907,0,2.026,0h32.659
        c1.119,0,2.026,0.907,2.026,2.026V34.686z" />
    </symbol>
    <symbol  viewBox="0 0 36.663 36.664" id="inst">
        <path d="M32.305,0H4.357C1.95,0,0,1.946,0,4.349v27.967c0,2.4,1.95,4.348,4.357,4.348h27.947
        c2.407,0,4.358-1.947,4.358-4.348V4.349C36.663,1.946,34.712,0,32.305,0 M26.352,5.729c0-0.632,0.513-1.146,1.146-1.146h3.438
        c0.632,0,1.145,0.514,1.145,1.146v3.438c0,0.633-0.513,1.146-1.145,1.146h-3.438c-0.633,0-1.146-0.513-1.146-1.146V5.729z
        M18.374,11.341c3.894,0,7.051,3.149,7.051,7.033c0,3.885-3.157,7.034-7.051,7.034s-7.051-3.148-7.051-7.034
        C11.323,14.49,14.48,11.341,18.374,11.341 M33.226,32.08c0,0.633-0.513,1.146-1.146,1.146H4.583c-0.633,0-1.146-0.514-1.146-1.146
        V14.895H8.02c-0.597,0.858-0.798,2.462-0.798,3.479c0,6.135,5.003,11.127,11.152,11.127s11.153-4.992,11.153-11.127
        c0-1.018-0.145-2.596-0.885-3.479h4.583V32.08z"/>
    </symbol>
    <symbol viewBox="0 0 37.453 31.21" id="twitter">
        <path d="M36.421,0.577c-1.486,0.902-3.129,1.558-4.884,1.909C30.14,0.956,28.142,0,25.93,0
        c-4.24,0-7.682,3.528-7.682,7.879c0,0.618,0.066,1.217,0.198,1.794C12.061,9.344,6.399,6.211,2.607,1.438
        c-0.662,1.168-1.04,2.522-1.04,3.966c0,2.731,1.356,5.144,3.418,6.557c-1.257-0.038-2.444-0.396-3.481-0.981v0.096
        c0,3.819,2.648,7.004,6.167,7.725c-0.645,0.186-1.324,0.277-2.025,0.277c-0.495,0-0.979-0.047-1.447-0.139
        c0.979,3.129,3.815,5.408,7.179,5.469c-2.63,2.115-5.944,3.375-9.544,3.375c-0.619,0-1.232-0.037-1.833-0.109
        c3.4,2.232,7.441,3.537,11.778,3.537c14.136,0,21.863-12.004,21.863-22.417c0-0.343-0.006-0.685-0.021-1.021
        c1.502-1.112,2.807-2.498,3.832-4.078c-1.376,0.626-2.857,1.05-4.412,1.24C34.629,3.961,35.847,2.417,36.421,0.577"/>
    </symbol>
     <symbol viewBox="0 0 11 11"  id="phone">
       <path fill="#E45028" d="M10.758,9.774c-0.164,0.383-0.602,0.633-0.953,0.828C9.344,10.852,8.875,11,8.352,11
        c-0.727,0-1.383-0.297-2.047-0.539c-0.477-0.172-0.938-0.383-1.367-0.648c-1.328-0.82-2.93-2.422-3.75-3.75
        C0.922,5.633,0.711,5.172,0.54,4.695C0.297,4.031,0,3.375,0,2.648c0-0.523,0.148-0.992,0.398-1.453
        c0.196-0.352,0.446-0.789,0.829-0.953C1.485,0.125,2.032,0,2.313,0c0.055,0,0.109,0,0.164,0.023
        c0.164,0.055,0.336,0.438,0.414,0.594c0.25,0.445,0.492,0.898,0.75,1.336C3.766,2.156,4,2.406,4,2.648
        C4,3.125,2.586,3.82,2.586,4.242c0,0.211,0.195,0.484,0.305,0.672C3.68,6.336,4.665,7.321,6.086,8.11
        c0.188,0.109,0.461,0.305,0.672,0.305C7.18,8.415,7.875,7,8.352,7C8.594,7,8.844,7.235,9.047,7.36
        c0.438,0.258,0.891,0.5,1.336,0.75c0.156,0.078,0.539,0.25,0.594,0.414C11,8.579,11,8.633,11,8.688
        C11,8.969,10.875,9.516,10.758,9.774z"/>
    </symbol>

     <symbol viewBox="0 0 28.685 14.479"  id="arrow-scroll">
      <path fill="#FFFFFF" d="M14.332,14.479c-1.279,0-2.554-0.486-3.525-1.458L0.268,1.681c-0.376-0.404-0.353-1.037,0.052-1.413
            c0.403-0.374,1.036-0.354,1.413,0.052l10.514,11.314c1.145,1.143,3.049,1.142,4.218-0.026L26.952,0.319
            c0.378-0.405,1.011-0.426,1.413-0.052c0.404,0.376,0.428,1.009,0.052,1.413L17.903,12.995
            C16.913,13.986,15.62,14.479,14.332,14.479z"/>
    </symbol>

     <symbol viewBox="0 0 60 60.178"  id="kkal">
     <path fill-rule="evenodd" clip-rule="evenodd" fill="#FFFFFF" d="M 38.164 48.505 c 0.149 0.27 0.217 0.584 0.342 0.87 c 0.035 0.08 0.162 0.192 0.213 0.177 c 0.095 -0.029 0.225 -0.133 0.236 -0.219 c 0.086 -0.707 -0.18 -1.311 -0.586 -1.946 c -0.107 0.417 -0.441 0.695 -0.205 1.118 Z m 6.729 3.215 l 0.84 0.378 l 0.167 0.271 l 0.341 -0.895 c -0.227 -0.049 -0.227 -0.049 -0.25 -0.854 c -0.277 -0.091 -0.56 -0.131 -0.488 0.291 c 0.081 0.5 -0.105 0.733 -0.61 0.809 Z m 3.295 -3.127 v 1.179 c 0.072 0.202 0.165 0.471 0.268 0.738 c 0.017 0.043 0.075 0.094 0.118 0.096 a 0.224 0.224 0 0 0 0.156 -0.069 c 0.188 -0.213 0.061 -0.979 -0.155 -1.18 c -0.108 -0.102 -0.166 -0.273 -0.212 -0.423 c -0.032 -0.106 -0.006 -0.229 -0.006 -0.345 l -0.169 0.004 Z m -0.436 3.168 l 0.986 -0.521 c -0.451 0.143 -0.267 -0.368 -0.377 -0.418 l -0.648 0.845 c 0.014 0.031 0.026 0.062 0.039 0.094 Z m -7.489 3.283 l 0.011 0.133 l 0.707 0.469 c -0.027 -0.281 -0.008 -0.577 -0.065 -0.592 c -0.205 -0.054 -0.434 -0.015 -0.653 -0.01 Z m 4.606 -0.709 l 1.193 -0.393 l -0.059 -0.178 l -1.209 0.349 l 0.075 0.222 Z m -3.365 0.819 c 0.309 0.184 0.651 0.095 0.986 0.073 l 0.02 -0.184 l -0.988 -0.063 l -0.018 0.174 Z m -1.996 -2.413 c -0.141 0.339 -0.25 0.6 -0.367 0.876 c 0.504 0.066 0.423 -0.404 0.576 -0.642 c 0.015 -0.025 -0.143 -0.162 -0.209 -0.234 Z m 9.771 -39.934 c 0.43 -0.424 0.57 -0.966 0.635 -1.602 c -0.291 0.221 -0.659 0.231 -0.725 0.635 c -0.043 0.258 -0.164 0.503 -0.23 0.759 c -0.019 0.071 0.007 0.213 0.049 0.229 c 0.078 0.03 0.219 0.03 0.271 -0.021 Z m 3.022 5.672 l 0.697 -0.415 c -0.125 -0.152 -0.125 -0.152 0.282 -0.7 c -0.136 -0.206 -0.303 -0.381 -0.478 -0.064 c -0.207 0.375 -0.454 0.433 -0.83 0.218 l 0.359 0.693 c -0.009 0.09 -0.02 0.179 -0.03 0.268 Z m 2.845 0.271 c 0.238 -0.042 0.555 -0.619 0.518 -0.866 c -0.019 -0.125 0.033 -0.269 0.082 -0.393 c 0.034 -0.087 0.116 -0.156 0.178 -0.233 l -0.115 -0.086 l -0.619 0.783 c -0.059 0.173 -0.139 0.402 -0.211 0.632 c -0.012 0.037 0.002 0.103 0.027 0.126 c 0.033 0.03 0.096 0.045 0.14 0.037 Z m -0.394 -0.004 l -0.876 0.22 l -0.023 0.084 c 0.31 0.057 0.62 0.115 0.931 0.171 c -0.377 -0.141 0.015 -0.385 -0.032 -0.475 Z m -5.665 8.285 a 1.925 1.925 0 0 0 -0.2 -0.476 c -0.009 -0.018 -0.152 0.005 -0.193 0.048 c -0.029 0.03 -0.006 0.13 0.02 0.19 c 0.054 0.135 0.123 0.264 0.213 0.451 c 0.059 -0.076 0.172 -0.159 0.16 -0.213 Z M 47.87 15.629 c 0.024 -0.008 -0.01 -0.183 -0.016 -0.265 l -0.704 0.39 c 0.299 0.309 0.493 -0.047 0.72 -0.125 Z m -1.108 8.11 l -0.085 1.152 l 0.134 0.011 l 0.092 -1.164 l -0.141 0.001 Z m 9.399 -7.73 l -0.043 -0.918 l -0.124 0.012 c 0.023 0.306 0.049 0.611 0.073 0.917 l 0.094 -0.011 Z m -26.17 2.636 a 5.967 5.967 0 0 0 4.253 -1.754 c 1.139 -1.141 1.791 -2.702 1.789 -4.282 c -0.006 -3.307 -2.654 -5.997 -5.901 -5.997 l -0.119 0.002 a 5.818 5.818 0 0 0 -4.375 1.796 a 5.978 5.978 0 0 0 -1.7 4.185 c 0.004 3.206 2.502 5.859 5.688 6.041 c 0.122 0.005 0.246 -0.02 0.365 0.009 Z m -2.524 -6.055 a 2.511 2.511 0 0 1 0.707 -1.727 a 2.308 2.308 0 0 1 1.664 -0.723 l 0.152 0.004 l 0.142 -0.003 c 1.283 0 2.369 1.133 2.372 2.474 c 0 0.64 -0.282 1.306 -0.758 1.782 a 2.422 2.422 0 0 1 -1.755 0.719 c -0.055 0 -0.11 -0.001 -0.166 -0.005 c -1.321 -0.076 -2.356 -1.183 -2.358 -2.521 Z M 6.88 50.749 c -0.13 0.573 -0.329 1.126 -0.354 1.688 c -0.017 0.378 0.213 0.767 0.333 1.15 l 0.731 -0.74 l 1.892 1.771 c -0.329 -1.668 -0.959 -3.082 -2.602 -3.869 Z m 17.845 -10.645 v 2.709 c 0.166 0.465 0.379 1.087 0.616 1.7 c 0.038 0.099 0.175 0.217 0.271 0.222 a 0.513 0.513 0 0 0 0.359 -0.159 c 0.435 -0.489 0.141 -2.25 -0.356 -2.713 c -0.251 -0.234 -0.382 -0.628 -0.487 -0.974 c -0.074 -0.243 -0.015 -0.528 -0.015 -0.794 l -0.388 0.009 Z M 6.793 16.1 c -0.145 -0.206 -0.523 -0.301 -0.806 -0.329 c -0.114 -0.011 -0.306 0.276 -0.381 0.461 c -0.243 0.595 -0.447 1.207 -0.726 1.977 c 0.543 -0.148 0.903 -0.234 1.257 -0.344 c 0.693 -0.214 1.078 -1.169 0.656 -1.765 Z M 3.637 33.25 c -1.037 0.331 -0.615 -0.847 -0.867 -0.959 l -1.492 1.942 l 0.092 0.217 l 2.267 -1.2 Z m -0.199 25.525 c -0.049 -0.021 -0.316 0.268 -0.332 0.428 c -0.011 0.114 0.209 0.288 0.36 0.375 c 0.343 0.195 0.708 0.353 1.215 0.6 c 0 -0.264 0.1 -0.629 -0.019 -0.725 c -0.36 -0.29 -0.797 -0.492 -1.224 -0.678 Z m 16.019 -28.016 c -0.298 0.127 -0.529 0.405 -0.779 0.61 c 0.291 0.12 0.583 0.32 0.887 0.339 c 0.25 0.016 0.566 -0.13 0.748 -0.311 c 0.1 -0.099 0.042 -0.569 -0.053 -0.608 c -0.239 -0.096 -0.574 -0.128 -0.803 -0.03 Z m 2.178 4.63 l 1.699 1.829 l 0.181 -0.18 l -1.636 -1.881 a 26.07 26.07 0 0 0 -0.244 0.232 Z M 9.84 30.098 l -0.055 -0.05 l -0.016 0.056 l 0.071 -0.006 Z"></path>
    <path fill-rule="evenodd" clip-rule="evenodd" fill="#FFFFFF" d="M59.852 52.693c-.578-2.218-1.171-4.432-1.764-6.646l-.643-2.401c-.174.583-.427 1.106-1.389.981l1.009-2.405c-.537-2.023-1.071-4.048-1.605-6.072-.349-1.319-.696-2.637-1.046-3.956a1.136 1.136 0 0 1-.27-.34c-.376-.86-.579-1.807-1.03-2.619-.4-.721-.252-1.301.011-1.897-.605-2.282-1.209-4.564-1.83-6.841a4.66 4.66 0 0 0-.505-1.176l.792.29c.018-.05.035-.1.055-.15l-.988-.404-.008.023c-.774-1.125-2.018-1.788-3.496-1.788h-.073c-.812.012-1.622.013-2.431.015-.514.975-.621 2.077-.131 3.435.012.033.01.063.02.095.866-.002 1.731-.003 2.615-.017.359 0 .609.101.745.603.098.36.191.721.289 1.081-.062.035-.12.077-.183.109-.367.189-.597.052-.62-.365l-.011-.208c-.117-.035-.23-.109-.3-.08-.102.042-.173.161-.257.246.279.269.192.553.043.844-.012.025.026.078.066.187l.171-.453c.106.164.175.277.249.385.143.203.425.208.498-.008a.807.807 0 0 1 .388-.487c.663 2.453 1.318 4.908 1.97 7.364l.344 1.3c.505 1.904 1.008 3.808 1.51 5.712a6153.61 6153.61 0 0 0 1.625 6.146c.334 1.255.67 2.51 1.006 3.764.592 2.206 1.184 4.411 1.758 6.619.065.254.031.489-.012.541-1.16.457-2.091.738-2.93.884a90.02 90.02 0 0 1-6.361.87c-1.445.149-2.947.217-4.401.284l-1.169.055c-.756.037-1.512.056-2.268.077-.478.012-.955.025-1.437.042-.212.007-.397.05-.554.103H22.553a1.884 1.884 0 0 0-.533-.102c-.451-.022-.901-.04-1.352-.058-.459-.019-.919-.037-1.379-.06l-.906-.042c-1.063-.05-2.128-.1-3.19-.179l-.385-.028c-1.429-.106-2.905-.216-4.319-.408-1.695-.232-3.506-.534-5.867-.977-.717-.134-.976-.318-1.092-.489V53.6c.016-.044.031-.09.043-.139l.383-1.489c.154-.601.311-1.2.467-1.799a60.63 60.63 0 0 1-.49-.098c.23-.687.463-1.101.854-1.286.374-1.403.75-2.806 1.126-4.208.363-1.35.726-2.699 1.086-4.049.343-1.287.683-2.575 1.022-3.862.333-1.26.665-2.52 1.001-3.78.248-.929.498-1.858.748-2.787l-1.69.155.741-1.09.965.88.188-.701a542.43 542.43 0 0 0 1.875-7.074c.371-1.452.371-1.452 1.588-1.452l.23.003c1.656.037 3.314.027 4.972.018.67-.003 1.341-.007 2.009-.008.152 0 .306-.011.469-.026l2.064-.149c-.924-1.05-.937-2.623-1.906-3.655-.178-.188-.066-.646-.089-.979l.272-.07a8.431 8.431 0 0 1-.582-4.326l-.348-.074v-1.379l.583.265c.833-3.284 2.843-5.434 6.152-6.552.308-.104.656-.186 1.026-.271l.366-.087h2.404c.106.036.219.063.335.081 2.469.345 4.462 1.534 5.923 3.534 1.858 2.543 2.308 5.34 1.335 8.313-.198.606-.501 1.223-.821 1.876-.165.335-.329.67-.482 1.008l-1.134 2.495 2.926.004c-.395-.351-.92-.587-1.641-.655.065-.599-.021-1.281.247-1.768.183-.333.86-.392 1.429-.618.209.238.449.514.69.787 1.348 1.518 2.636 1.388 3.488-.335.072.076.139.169.198.283.128-.094.311-.159.35-.273.051-.144-.004-.332-.039-.495-.024-.112-.093-.214-.141-.32l.057-.131-.167.001-1.885-.003c.101-.246.194-.498.279-.758 1.326-4.055.69-8.028-1.839-11.491-1.789-2.448-4.25-4.058-7.143-4.724-.008.08-.018.16-.025.24-1.422.095-2.879.472-4.196-.312l.028-.267h-.613l-.214.055a28.06 28.06 0 0 1-.519.124c-.327.076-.666.163-1.014.264.039.492.04 1.213.107 1.917l-1.883-1.246c-3.689 1.681-6.127 4.664-7.08 8.712-.606 2.568-.404 5.118.574 7.489-1.482.007-2.965.013-4.448-.02l-.308-.003c-3.312 0-4.344 1.506-5.008 4.108-.138.539-.283 1.082-.424 1.623.043.639.133 1.283.221 2.107h-.773c-.295 1.108-.594 2.213-.886 3.298-.319 1.185-.639 2.369-.954 3.554-.336 1.262-.67 2.525-1.004 3.788-.338 1.285-.678 2.569-1.021 3.854-.359 1.348-.722 2.695-1.083 4.043l-.305 1.14c.183.344.195.938.023 1.834-.104-.252-.207-.504-.313-.756-.233.874-.469 1.748-.701 2.621-.195.733-.383 1.469-.571 2.204.245.227.476.438.705.649l-.208.231a3.77 3.77 0 0 1-.689-.135l-.181.704-.261.282v2.299l.093.275c.552 1.632 1.855 2.653 3.876 3.032 2.423.455 4.285.764 6.043 1.006 1.521.206 3.053.32 4.535.431l.383.028c1.094.082 2.191.134 3.289.185l.896.043c.471.022.941.042 1.412.061l.973.04.253.122H38.1l.244-.117c.349-.011.697-.02 1.045-.028.782-.021 1.564-.042 2.348-.08l1.157-.055c1.503-.069 3.056-.14 4.599-.299.224-.022.445-.049.668-.073.406-.765 1.195-.317 1.96-.233.242-.031.487-.06.728-.092.145-.068.282-.174.41-.33l-1.183-1.438.155-.339c.372.191.791.326 1.107.586.452.373 1.008.771 1.191 1.275a85.79 85.79 0 0 0 1.571-.26c1.081-.188 2.23-.53 3.619-1.079 2.092-.825 2.571-3.02 2.133-4.711zM43.631 17.656l.007.358a.32.32 0 0 1-.161-.004l.154-.354zm-1.98-7.687l-1.434-1.715c1.363-.173 1.68.156 1.434 1.715zM4.707 57.057h3.07c-1.404.804-2.442.818-3.07 0zm24.868.547l-.022-.306c.506-.011 1.032-.104 1.501.022.131.035.088.716.149 1.362l-1.628-1.078zm5.101.114c-.77.051-1.557.255-2.27-.169l.041-.398 2.273.145-.044.422z"></path>
    </symbol>



 <symbol viewBox="0 0 45.748 44.625" id="burger" xmlns="http://www.w3.org/2000/svg"><g fill-rule="evenodd" clip-rule="evenodd"
    fill='#fff'>
    <path d="M8.502 31.551l-.015-.742.133-.068c.069.152.167.297.201.457.05.23.127.496.056.701-.055.162-.314.254-.496.387-.348-.66-.842-.865-1.437-.65-.105.039-.175.189-.252.295-.241.33-.48.662-.714.998-.109.156-.204.32-.335.529l-1.236-.979.069-.133c.183.094.375.17.546.283.227.15.415.223.581-.08.031-.057.154-.063.236-.09.083-.029.226-.045.237-.09a.586.586 0 0 0-.04-.334c-.079-.189-.187-.367-.283-.549.051-.023.102-.049.152-.072l.345.584c-.078-.893.632-.66.975-.922.626-.482.636.617 1.277.475zm7.505 6.412c-.75-.012-1.312.143-1.558.879-.103.307-.503.301-.704.014-.105-.154-.203-.314-.353-.545l-.242.641c-.057-.154-.112-.229-.094-.264.211-.414.335-.816-.062-1.197.119-.121.22-.287.364-.348.099-.041.259.064.424.113l.015.295c.033.592.359.785.878.518.224-.115.449-.24.652-.389.364-.268.549-.141.68.283zm1.388-16.06c-.091.901-.292 1.669-.899 2.27-.074.073-.274.073-.385.03-.059-.023-.095-.225-.069-.325.095-.362.266-.71.326-1.075.092-.573.614-.586 1.027-.9zm4.768 8.726c-.577.775-.577.775-.4.992l-.988.588.044-.379a225.53 225.53 0 0 0-.509-.982c.533.305.883.223 1.176-.309.248-.449.485-.201.677.09zm-1.496 10.314l-.676-.102-.117.48-.913-1.076c.712-.462.981-.366 1.706.698zm4.2-9.476l.878-1.109c.054.041.108.082.162.121-.086.109-.202.207-.251.33-.068.176-.143.381-.116.557.054.352-.396 1.168-.733 1.227a.261.261 0 0 1-.198-.051c-.038-.033-.056-.127-.038-.18.099-.327.214-.651.296-.895zm-1.861 1.431l1.241-.313c.067.129-.488.473.044.674l-1.318-.242c.012-.04.023-.079.033-.119zm-9.307-1.269l-.317-.969.09-.133c.21.16.456.293.607.496.042.057-.196.323-.38.606zm4.736 1.4l1.399.57-.078.213c-.473-.172-.945-.346-1.417-.52.033-.087.064-.175.096-.263zm-1.418 10.328c.435.342.806.637 1.257.994-.836-.126-1.265-.456-1.257-.994zm2.672-6.273c.444.242.375.605-.315 1.201.055-.191.114-.385.165-.578.053-.205.1-.412.15-.623zm-3.695 7.541c-.127-.264-.226-.447-.302-.639-.035-.084-.068-.227-.026-.27.058-.061.261-.092.274-.068.116.215.229.439.283.674.016.078-.143.196-.229.303zm1.332-4.666c-.298-.303-.588-.607-.023-1.18.074.465.128.809.184 1.152l-.161.028zm-2.622-8.553l.884.795-.155.158c-.332-.229-.72-.4-.875-.805.049-.048.097-.099.146-.148zm-1.226-3.058l.999-.552c.008.116.056.364.022.375-.323.11-.596.614-1.021.177zm-.35 11.31l-.13 1.648a6.081 6.081 0 0 1-.19-.016l.121-1.631.199-.001zm13.055-12.25l.061 1.301-.133.016-.104-1.299.176-.018zM18.652 6.31l-.901.071-.323.465.57.557c.673.658 1.439 1.02 2.16 1.02.641 0 1.213-.295 1.571-.811.288-.416.236-.938.179-1.211-.087-.418-.285-.733-.575-.913-.493-.306-.984-.461-1.459-.461-.518 0-1.258.193-1.909 1.059.213-.034.428-.071.638-.091l.049.315zm-9.866 4.162l-.807-.968-.7 1.049c-.042.063-.101.129-.157.198-.281.338-.705.849-.448 1.489.2.496.498.925.762 1.304.091.132.183.263.269.396l.395.517 1.531-.275.185-.514c.021-.06.057-.125.09-.192.165-.335.44-.894.115-1.447-.266-.454-.596-.827-.915-1.188-.107-.122-.216-.244-.32-.369zm20.346.539l.666.866 2.879-2.983-.756-.651a5.256 5.256 0 0 1-.213-.203c-.341-.336-.635-.625-1.097-.625l-.274.004-.221.131c-.619.363-1.136.826-1.6 1.27-.643.609-.131 1.25.242 1.719.113.139.243.302.374.472zm-14.539 2.93c.065.064.131.127.181.181l.661.725 1.025-1.009c.374-.361.76-.735 1.112-1.16.494-.598.079-1.182-.225-1.609-.102-.144-.225-.316-.354-.515l-.743-1.148-.807 1.104c-.142.193-.273.371-.396.535-.377.505-.675.904-.937 1.359-.397.688.154 1.22.483 1.537zm-1.61-7.607a9.296 9.296 0 0 0-.236-.145l-.231-.131h-.253c-.467 0-.739.291-1.054.627-.063.068-.126.137-.18.188l-.7.664 1.001 1.011c.088.091.182.183.272.273.21-.165.53-.227.968-.178-.237.146-.348.415-.484.644.134.123.265.248.408.367l.279.219h.337c.364 0 .602-.17.995-.452.141-.101.311-.224.503-.35l1.139-.747-1.621-1.186a21.31 21.31 0 0 0-.968-.693 8.154 8.154 0 0 1-1.252-.116c.359 0 .719.005 1.077.005zm9.988 7.756l.733 1.051 2.239-2.893-1.389-1.453c-.008.1-.03.212-.07.339-.068.216.294.581.479.861.103.158.248.287.483.551-1.015-.304-1.081-.354-1.439-1.128-.224-.48-.434-.967-.648-1.452l-.486.743c-.059.09-.135.18-.209.271-.285.348-.674.823-.63 1.448.042.596.411 1.029.708 1.377.08.095.162.189.229.285zm1.805-1.405c.11.04.202.396.152.56-.177.584-.797.96-1.715 1.012-.052-.121-.224-.322-.192-.481.114-.563 1.253-1.272 1.755-1.091zm7.289 1.769c.104.06.206.134.31.206.36.255.809.572 1.445.598.581 0 1.006-.348 1.346-.629.088-.071.175-.146.262-.203l1.075-.705-2.835-2.31-2.748 2.38 1.145.663z"/><path d="M17.044 2.939l-.373.141c.044.177.147.375.149.545a25.381 25.381 0 0 1 5.889-.699c1.043 0 2.075.062 3.088.182-.216.115-.396.305-.591.512-.064.067-.129.137-.183.188l-.698.658.993 1.02c.358.375.729.762 1.154 1.115l.282.224h.34c.355 0 .605-.171.981-.429.144-.1.317-.219.515-.342l1.171-.729-1.621-1.22A19.017 19.017 0 0 0 27 3.28c3.531.593 6.788 1.915 9.438 3.868 3.064 2.257 4.755 4.932 5.171 8.176l.008.074H17.251c.204.1.238.354.159.852l-.713-.852H6.009c.059.242.048.589-.043 1.068-.099-.239-.193-.48-.297-.718-.051-.118-.107-.233-.162-.351H3.9l.021-.115c.158-.842.307-1.638.563-2.365.855-2.424 2.507-4.402 5.198-6.229 1.619-1.098 3.459-1.96 5.43-2.589l-.355-1.866c-2.226.69-4.306 1.657-6.132 2.897a19.497 19.497 0 0 0-2.238 1.764c.045.226-.045.729.532.546-.51.271-1.02.539-1.529.809-.022-.048-.042-.099-.062-.146l.569-.74c-1.488 1.479-2.546 3.108-3.189 4.929-.305.865-.475 1.77-.638 2.646-.074.395-.149.795-.238 1.201l-.25 1.145h5.971l-1.022-.217v-.711l1.5.682-.081.246h35.681l-.092-1.44a10.197 10.197 0 0 0-.059-.759c-.483-3.781-2.421-6.875-5.922-9.453-4.018-2.96-9.291-4.59-14.847-4.59-2.055 0-4.075.235-6.011.672l.012.029c-.826.704.385.707.332 1.196zm-6.631 1.749l.687.627c-.275.024-.628.058-1.187.107l.5-.734z"/><path d="M15.996 3.127c-.096.024-.192.051-.288.076.011.227-.013.473-.006.703.205-.06.417-.104.625-.158l-.331-.621zm-.553-1.098l-.01.002.003.004zm20.978 9.32l.855 1.039.055-.045c-.222-.56-.377-1.157-.798-1.604-.119-.127-.045-.436-.06-.66l.229-.06 1.328 1.749 1.634-1.342-.995-1.021c-.432-.447-.806-.832-1.215-1.183l-.266-.229h-.352c-.721 0-1.443 1.072-1.449 1.082l-.271.519.311.47c.309.463.656.881.994 1.285zm6.787 20.313l.236.217c.029-.41.04-.822.014-1.23l-.057-.883h-.885c-.34 0-.684.01-1.027.021-.326.01-.652.02-.979.02-.422 0-.766-.018-1.082-.055a13.718 13.718 0 0 0-1.637-.104c-2.473 0-4.43.84-5.947 2.561a13.361 13.361 0 0 1-.668-.82c-1.077-1.465-2.551-1.652-3.715-1.652h-.076c-.993.008-2.014.014-3.07.02.203.543.299 1.098.226 1.703-.007.059-.054.123-.114.182 1.022-.006 2.01-.012 2.973-.02h.063c1.143 0 1.717.232 2.197.885.324.441.686.854 1.034 1.252.156.178.315.359.474.545l.803.949.697-1.029c1.261-1.859 2.842-2.689 5.125-2.689.336 0 .693.023 1.068.059v-1.281c.087 0 .174-.004.262-.004 0 .178-.041.369.01.533.07.234.159.5.328.658a.66.66 0 0 1 .12.158c.286.021.584.037.931.037.346 0 .691-.012 1.037-.021.01-.002.021-.002.031-.002-.111 1.91-.955 3.83-2.387 5.381-1.765 1.912-4.182 3.029-6.631 3.064-6.508.1-13.179.09-19.823-.029-2.327-.041-4.633-1.094-6.325-2.891-1.466-1.559-2.346-3.537-2.486-5.545l11.911.008c3.099 0 5.707-.006 8.089-.016a.497.497 0 0 1-.083-.119c-.194-.441-.298-.93-.531-1.348a.928.928 0 0 1-.122-.414c-2.184.008-4.571.012-7.354.012l-13.767-.009-.039.902c-.119 2.811.978 5.66 3.01 7.818 2.038 2.164 4.832 3.436 7.664 3.484 3.638.064 7.308.098 10.907.098 2.993 0 6.014-.023 8.978-.066 2.962-.045 5.874-1.385 7.987-3.672 1.59-1.723 2.567-3.84 2.822-5.994l-.691.063.499-.737zm-16.623 8.859l-.016-.205c.341-.008.696-.07 1.012.014.088.023.061.482.102.918-.518-.344-.808-.533-1.098-.727zm3.438.079c-.518.033-1.049.172-1.529-.115.01-.09.02-.178.028-.268.511.033 1.021.064 1.532.098l-.031.285zM2.93 26.396c3.467.01 6.939.012 10.438.014a6.04 6.04 0 0 1-.207-.42c-.168-.384.262-1.04.698-1.18a.73.73 0 0 0 .38-.285l-1.797-.001.607 1.688c-.497-.218-.915-.975-1.091-1.689-3.019 0-6.024-.004-9.022-.012-.334-.001-.61-.104-.797-.295a.933.933 0 0 1-.254-.693c.015-.785.689-.953 1.252-.955 1.915-.01 3.832-.013 5.747-.014a.692.692 0 0 1-.018-.18c.017-.38.151-.752.239-1.139.649.311 1.059.77 1.335 1.319l3.641.002a10.133 10.133 0 0 1-.099-.696c.203.295.354.515.465.696l1.549.001c.579 0 1.158.004 1.738.008.583.004 1.167.008 1.75.008 1.025 0 1.862-.013 2.634-.039l.103-.002c.129 0 .244.012.354.029-.084-.091-.168-.195-.251-.271.223-.219.419-.486.684-.623.081-.041.349.287.68.576-.296.194-.494.387-.675.467.188.098.363.234.546.436.428.472.869.912 1.347 1.377l-9.704.002h-.554c-.167.674-.599 1.386-.95 1.482l-.251.25c.066.051.135.102.202.152h1.554l14.343-.002-1.646-1.615c-.371-.364-.721-.699-1.053-1.018-.712-.684-1.325-1.272-1.893-1.896-.03-.033-.063-.063-.095-.096-.021.125-.244.239-.375.359-.156-.177-.389-.336-.44-.539-.018-.071.088-.178.235-.325-.598-.425-1.267-.63-2.058-.63l-.168.002c-.75.026-1.566.039-2.569.039-.58 0-1.159-.005-1.738-.008-.583-.004-1.167-.008-1.77-.008l-6.927-.002h-.361l.214.47c-.675-.135-1.229-.247-1.785-.356.013-.041.028-.071.042-.109-.945.002-1.891.003-2.836.007l1.05.966-.14.156c-.534-.067-1.057-.148-.971-1.122l-1.134.003a3.91 3.91 0 0 0-.893.113c.021.014.042.024.063.039-.768.59-1.213 1.195-.873 2.14.142.393-.269.706-.702.574-.208-.062-.417-.138-.703-.235-.005.057-.019.111-.02.17l.002.029.194.609a2.08 2.08 0 0 0-.154-.085c.095.569.351 1.088.75 1.495.54.554 1.299.861 2.138.862zm41.075-4.104c-.275-.465-1.227-.737-2.1-.759-.086.234-.27.437-.506.51-.238.074-.481.133-.848.232.076-.209.143-.398.207-.579a1.043 1.043 0 0 0-.3.174c-1.174 1.034-2.284 2.14-3.419 3.218l.33.381c1.725.006 3.457.1 5.166-.059.649-.061 1.474-.633 1.781-1.205.252-.463.01-1.375-.311-1.913z"/><path d="M35.312 32.168c.194-.514.391-1.027.527-1.389-.352-.076-.352-.076-.389-1.322-.428-.141-.866-.203-.757.451.13.771-.159 1.135-.944 1.252l1.303.588c.086.141.173.279.26.42zm10.422 2.297c.061-.066-.094-.469-.139-.467-.338.016-.673.092-1.139.174l.535.852c.28-.2.55-.344.743-.559zm-.369-2.846c-.888-.1-1.295.252-1.271 1.014.841.174.767-.705 1.271-1.014zm-5.651-1.203c-.7.221-.415-.572-.586-.646l-1.006 1.309c.021.047.041.098.063.146.51-.272 1.02-.539 1.529-.809zm-4.15 4.189l-.092-.273c-.625.178-1.249.359-1.873.539l.115.346c.617-.203 1.234-.406 1.85-.612zm2.554 3.368c.116.254.236.5.347.752.104.236.197.479.297.719.22-1.157-.002-1.583-.644-1.471zm-2.809-17.961c-.2.085-.356.273-.524.411.195.081.393.216.597.229.169.011.382-.087.505-.21.066-.066.029-.383-.035-.409-.161-.066-.388-.088-.543-.021zm-9.587 13.095c.025-.041-.221-.252-.322-.363l-.569 1.359c.78.102.655-.626.891-.996zm2.967-20.168c.016-.186.014-.376.051-.558.054-.258.137-.511.212-.786h-.82c-.083.227-.231.433-.21.619.027.223.166.455.319.629.081.094.294.069.448.096zm-2.811-5.472c-.686.302-.943 1.207-.453 1.955l.453-1.955zm-12.94 4.023c.061-.068-.094-.469-.139-.467-.338.015-.673.092-1.138.173l.535.852c.279-.198.55-.344.742-.558zm14.441-1.294c-.563-.525-.782-.539-1.44-.114l.31.589 1.13-.475zm-24.61 1.435a44.415 44.415 0 0 1-.092-.275l-1.874.54.115.345 1.851-.61zm1.493 6.994c-.002.021 0 .035-.002.056h.062l-.06-.056zm21.696-.256l.275.283.806-1.08c-.685-.126-.997.137-1.081.797zm-3.81 3.699c.177-.432.063-.792-.505-1.041l.297 1.094.208-.053zm4.772-1.36v-1.464l-.271.012.107 1.485.164-.033zM4.147 0l-.165.156L5.128 1.39l.122-.122L4.147 0z"/></g>
</symbol>
    
</svg>